<?xml version="1.0" encoding="UTF-8"?>
<svg version="1.1" xmlns="http://www.w3.org/2000/svg" width="512" height="512">
<path d="M0 0 C0.97004974 0.00054382 1.94009949 0.00108765 2.93954468 0.00164795 C18.52378224 0.041742 33.4368004 0.91653658 48.6875 4.375 C50.16718262 4.70443604 50.16718262 4.70443604 51.67675781 5.04052734 C91.61067959 14.16809633 128.11524174 32.83110027 158.00390625 60.87890625 C160.29034973 63.00559822 162.61737084 65.04572561 165 67.0625 C168.97016668 70.52012467 172.30128286 74.35471033 175.6875 78.375 C176.49960937 79.28765625 177.31171875 80.2003125 178.1484375 81.140625 C189.94677633 94.50060357 199.44985268 109.60205352 207.6875 125.375 C208.05439941 126.07077148 208.42129883 126.76654297 208.79931641 127.48339844 C219.6966996 148.42791386 226.58483509 171.17403944 230.6875 194.375 C230.81205566 195.0752832 230.93661133 195.77556641 231.06494141 196.49707031 C236.55629028 228.95704367 236.38760209 270.85604812 222.6875 301.375 C218.99005904 303.83996064 215.97717484 304.03959751 211.6875 303.375 C209.1875 301.9375 209.1875 301.9375 207.6875 299.375 C206.84526222 292.61653359 208.424972 286.26117778 210.0625 279.75 C223.0363306 224.96958799 212.76081943 167.144881 183.703125 119.11328125 C175.75545166 106.39753164 166.63715889 94.55595254 156.13330078 83.85595703 C154.69180716 82.3794119 153.28041156 80.87831485 151.87109375 79.37109375 C143.93046769 71.00587894 135.0311208 64.10537113 125.6875 57.375 C125.06504395 56.92382812 124.44258789 56.47265625 123.80126953 56.0078125 C79.08991061 23.94098622 21.75627931 11.7019631 -32.35107422 19.83154297 C-78.37164262 27.42023483 -117.60826939 48.61160289 -151.3125 80.375 C-152.0446875 81.06464844 -152.776875 81.75429687 -153.53125 82.46484375 C-189.99981999 117.84803963 -212.83645284 171.91798969 -213.61328125 222.51171875 C-213.64206361 225.6955988 -213.63953424 228.87854683 -213.625 232.0625 C-213.62226578 233.31182816 -213.62226578 233.31182816 -213.61947632 234.58639526 C-213.57236226 247.40034386 -212.98329615 259.80532133 -210.3125 272.375 C-210.05509033 273.64537109 -210.05509033 273.64537109 -209.79248047 274.94140625 C-203.83966993 303.8383382 -192.42381856 331.27539497 -175.3125 355.375 C-174.57644531 356.42300781 -173.84039062 357.47101563 -173.08203125 358.55078125 C-165.9644633 368.33905776 -158.01794963 377.94357179 -149.3125 386.375 C-148.06338614 382.16401354 -146.98620928 377.98042031 -146.07128906 373.68115234 C-137.71748518 335.1933316 -114.66684389 302.45955108 -82.26953125 280.29296875 C-70.17823996 272.52327967 -56.79187518 266.33014306 -43.3125 261.375 C-43.84617188 261.04628906 -44.37984375 260.71757812 -44.9296875 260.37890625 C-64.47896269 247.89848662 -79.07600795 228.93366923 -84.34765625 206.171875 C-88.97570966 183.82629846 -86.02404339 160.2027008 -74 140.5625 C-72.8003193 138.81274737 -71.57045673 137.0833363 -70.3125 135.375 C-69.64476562 134.46234375 -68.97703125 133.5496875 -68.2890625 132.609375 C-55.86345832 116.5502909 -39.62718468 106.69947223 -20.3125 101.375 C-19.425625 101.12878906 -18.53875 100.88257812 -17.625 100.62890625 C3.77870291 95.77962981 27.02906854 100.34951901 45.83203125 111.1875 C67.02500153 124.68135527 80.11461261 143.88660592 85.9765625 168.0859375 C90.75051839 190.17204112 86.36640197 213.36193879 74.5703125 232.5625 C66.87582161 244.05634531 57.25199637 255.09275181 44.6875 261.375 C45.41453125 261.67792969 46.1415625 261.98085938 46.890625 262.29296875 C49.02348618 263.18166091 51.154878 264.07388399 53.28515625 264.96875 C55.36553577 265.82860836 57.45499246 266.66737808 59.55859375 267.46875 C84.36109293 277.10078851 105.96398726 295.25789778 122.0625 316.25 C122.53341064 316.84409668 123.00432129 317.43819336 123.48950195 318.05029297 C126.82922778 322.61375937 127.28661073 325.74573189 126.6875 331.375 C124.75795537 334.16212003 123.42039213 335.11191052 120.25 336.25 C117.03285922 336.4069337 115.54867148 335.88751356 112.6875 334.375 C110.83634698 332.28164004 109.200047 330.24679716 107.5625 328 C106.59074451 326.72258653 105.61540322 325.4478939 104.63671875 324.17578125 C104.14478027 323.53592285 103.6528418 322.89606445 103.14599609 322.23681641 C83.102072 296.65011318 51.99255259 279.26031271 19.80859375 274.71875 C-16.65221223 270.70304171 -52.42173978 279.26159573 -81.57421875 301.98144531 C-113.56419528 327.62734223 -127.51858422 362.61369856 -132.3125 402.375 C-131.79171875 402.61089844 -131.2709375 402.84679687 -130.734375 403.08984375 C-127.51204032 404.79976006 -124.56647592 406.87787608 -121.5625 408.9375 C-113.72262095 414.22235843 -105.67622941 418.9691973 -97.3125 423.375 C-96.35947998 423.88111816 -96.35947998 423.88111816 -95.38720703 424.39746094 C-69.73119844 437.81108441 -39.47294973 446.41030848 -10.421875 446.578125 C-9.6034613 446.58518463 -8.78504761 446.59224426 -7.9418335 446.59951782 C18.56812671 446.77629276 43.30958754 444.83430415 68.6875 436.375 C75.67038509 435.93164222 75.67038509 435.93164222 79.125 437.4375 C81.48009706 440.35782035 81.62361417 442.66962195 81.6875 446.375 C80.875 449.0625 80.875 449.0625 78.6875 451.375 C67.84472906 456.79172506 55.44774598 458.88658956 43.6875 461.375 C42.82205566 461.5601416 41.95661133 461.7452832 41.06494141 461.93603516 C12.9535281 467.62410204 -19.39304141 466.40593352 -47.3125 460.375 C-48.80402588 460.05354004 -48.80402588 460.05354004 -50.32568359 459.72558594 C-84.17789471 452.15142243 -116.22587558 437.0746487 -143.3125 415.375 C-144.27414063 414.61703125 -145.23578125 413.8590625 -146.2265625 413.078125 C-162.52142946 399.79471447 -177.33389232 384.66832029 -189.3125 367.375 C-189.78445801 366.69937012 -190.25641602 366.02374023 -190.74267578 365.32763672 C-208.46147378 339.69855205 -220.89489498 310.86877827 -227.3125 280.375 C-227.52132812 279.40208008 -227.73015625 278.42916016 -227.9453125 277.42675781 C-234.08747762 247.44482841 -233.75328324 214.26418259 -227.3125 184.375 C-227.10351074 183.39660156 -226.89452148 182.41820312 -226.67919922 181.41015625 C-220.3331915 152.77468773 -208.83576264 124.05508465 -191.3125 100.375 C-190.62027344 99.41335937 -189.92804688 98.45171875 -189.21484375 97.4609375 C-174.86721886 77.87529082 -158.1116845 59.55048546 -138.3125 45.375 C-137.69874512 44.92753418 -137.08499023 44.48006836 -136.45263672 44.01904297 C-106.68623422 22.40575097 -72.57434452 8.42401896 -36.3125 2.375 C-35.22316162 2.18953613 -34.13382324 2.00407227 -33.01147461 1.81298828 C-22.01082257 0.1318853 -11.10906894 -0.0234571 0 0 Z M-55.125 143.6875 C-66.53595045 159.2833956 -71.34022116 177.91745542 -68.64477539 197.04443359 C-65.65219091 215.21982176 -55.00420909 232.45197892 -40.06640625 243.20507812 C-31.01551397 249.24236596 -21.06380573 253.5906764 -10.3125 255.375 C-9.44753906 255.52710938 -8.58257812 255.67921875 -7.69140625 255.8359375 C10.04425232 258.20771948 28.1498431 252.60940992 42.5390625 242.33984375 C56.62318309 231.34026196 66.2313728 215.98337221 69.6875 198.375 C70.0278125 196.6425 70.0278125 196.6425 70.375 194.875 C72.05744256 176.03164336 67.50051538 157.97722722 55.8125 142.90234375 C43.5476341 128.31526978 26.99904467 117.99034532 7.70947266 116.19042969 C-17.38210266 114.54099532 -39.0666809 124.573837 -55.125 143.6875 Z " fill="#000000" transform="translate(231.3125,-0.375)"/>
<path d="M0 0 C2.26960827 3.02614437 2.75155497 5.55468742 3.54711914 9.20288086 C5.5180826 18.08751381 5.5180826 18.08751381 11.64453125 24.38671875 C15.01032522 26.14164032 18.50049408 27.46347709 22.07543945 28.72558594 C23.875 29.5 23.875 29.5 26.609375 31.69921875 C28.67232717 33.66466452 28.67232717 33.66466452 30.98046875 33.7421875 C31.66753906 33.62101562 32.35460937 33.49984375 33.0625 33.375 C33.83722656 33.25125 34.61195313 33.1275 35.41015625 33 C37.08751717 32.65974295 38.76198974 32.30499768 40.43359375 31.9375 C49.99358233 29.84216004 49.99358233 29.84216004 54.875 31.5 C61.72893619 36.98629296 65.89084512 45.83393648 69.875 53.5 C70.28105469 54.27988281 70.68710937 55.05976563 71.10546875 55.86328125 C72.26019397 59.81982705 72.76274859 63.43509379 71.875 67.5 C70.50124083 69.27462122 69.01628387 70.4686866 67.24780273 71.84594727 C61.43178516 76.40034925 58.59115091 80.78993053 57.58984375 88.171875 C56.94736666 98.01288795 56.44857432 108.12128483 63.14672852 115.98999023 C65.58424721 118.38249539 68.14857348 120.44246722 70.875 122.5 C72.74002376 126.23004753 72.49192085 130.58392747 71.23388672 134.49121094 C70.33807975 136.50386158 69.35869943 138.436342 68.3125 140.375 C67.95188477 141.06609863 67.59126953 141.75719727 67.21972656 142.46923828 C58.68035927 158.5114239 58.68035927 158.5114239 52.875 160.5 C50.39453125 160.546875 50.39453125 160.546875 47.6875 160.25 C46.72199219 160.14429688 45.75648438 160.03859375 44.76171875 159.9296875 C41.42199337 159.43257006 38.19742314 158.7073646 34.9453125 157.8046875 C29.93128781 157.06677443 26.61790158 159.07172932 22.5625 161.8125 C10.85725309 169.5 10.85725309 169.5 6.875 169.5 C6.6275 170.7375 6.38 171.975 6.125 173.25 C5.23585248 177.16722333 4.21854952 181.02774207 3.0625 184.875 C2.61970703 186.37160156 2.61970703 186.37160156 2.16796875 187.8984375 C0.5214451 191.21138237 -0.7952041 191.92286214 -4.125 193.5 C-7.55078125 193.88818359 -7.55078125 193.88818359 -11.4375 193.8984375 C-12.12884033 193.90130768 -12.82018066 193.90417786 -13.5324707 193.90713501 C-14.98812687 193.90916839 -16.44381081 193.90368938 -17.89941406 193.89111328 C-20.11846425 193.87504732 -22.33569347 193.89098461 -24.5546875 193.91015625 C-25.97396232 193.90817369 -27.39323602 193.90432974 -28.8125 193.8984375 C-30.09511719 193.89505371 -31.37773437 193.89166992 -32.69921875 193.88818359 C-36.38296053 193.47076987 -38.24957434 192.81167418 -41.125 190.5 C-42.2434082 188.5546875 -42.2434082 188.5546875 -42.92578125 186.375 C-43.30766602 185.19164062 -43.30766602 185.19164062 -43.69726562 183.984375 C-43.94154297 183.16453125 -44.18582031 182.3446875 -44.4375 181.5 C-44.70111328 180.68015625 -44.96472656 179.8603125 -45.23632812 179.015625 C-46.28126462 175.69354118 -47.125 173.00501929 -47.125 169.5 C-47.888125 169.29375 -48.65125 169.0875 -49.4375 168.875 C-55.64607356 166.55993867 -61.87108356 163.59292241 -66.75 159.0625 C-69.97509006 156.94073022 -72.0040322 157.40372899 -75.72265625 158.00390625 C-78.84498615 158.64868007 -81.94891871 159.3624019 -85.0546875 160.08203125 C-89.60927846 161.00154301 -93.21718637 161.08856998 -97.125 158.5 C-98.90184303 156.21466206 -100.49772592 153.98454992 -102.0625 151.5625 C-102.50198975 150.8917041 -102.94147949 150.2209082 -103.39428711 149.52978516 C-112.54512836 135.28684775 -112.54512836 135.28684775 -113.125 127.5 C-111.29667155 122.39124107 -108.58284399 120.20211269 -104.4375 116.875 C-99.16730574 111.80949018 -98.19378997 106.50904996 -97.69775391 99.36035156 C-97.51784179 90.12325275 -97.36108578 82.03079022 -103.75 74.84326172 C-105.49871345 73.18547006 -107.3025424 71.66859283 -109.18359375 70.1640625 C-112.125 67.5 -112.125 67.5 -113.21875 64.62890625 C-113.09779257 60.59195204 -111.8636966 57.41836259 -110.1875 53.8125 C-109.87119629 53.11350586 -109.55489258 52.41451172 -109.22900391 51.69433594 C-105.43681307 43.61298255 -100.69810157 35.52557505 -93.125 30.5 C-90.765625 30.2578125 -90.765625 30.2578125 -88.375 30.625 C-87.07755859 30.81255859 -87.07755859 30.81255859 -85.75390625 31.00390625 C-82.55379046 31.6077914 -79.3847044 32.28690525 -76.23046875 33.09765625 C-72.5596008 33.79913936 -70.13314432 34.09697283 -66.8359375 32.14453125 C-66.06507813 31.53996094 -65.29421875 30.93539062 -64.5 30.3125 C-60.79755276 27.48186597 -57.89941593 26.10862462 -53.4375 24.875 C-50.2245962 23.56989944 -48.57701138 22.425615 -47.04150391 19.28125 C-45.65351691 15.55988517 -44.49697387 11.82065731 -43.4934082 7.97802734 C-41.61589001 0.91536847 -41.61589001 0.91536847 -38.63671875 -1.60546875 C-28.73259036 -5.13275553 -8.87796059 -6.26679571 0 0 Z M-27.125 13.5 C-27.60453125 15.52640625 -27.60453125 15.52640625 -28.09375 17.59375 C-32.19278441 32.75196227 -32.19278441 32.75196227 -37.8359375 36.3984375 C-41.19723025 38.14574918 -44.70182522 39.48900052 -48.26318359 40.77050781 C-53.30359455 42.74542886 -57.74691818 46.22275343 -61.6875 49.875 C-66.7747654 53.26651026 -72.37714403 51.51050078 -78.04150391 50.41821289 C-81.07629553 49.80904977 -84.101179 49.16146084 -87.125 48.5 C-88.10780415 50.10194071 -89.08611717 51.70663742 -90.0625 53.3125 C-90.60777344 54.20582031 -91.15304687 55.09914063 -91.71484375 56.01953125 C-93.23509578 58.50703562 -93.23509578 58.50703562 -94.125 61.5 C-93.60550781 61.99628906 -93.08601563 62.49257813 -92.55078125 63.00390625 C-91.85339844 63.68324219 -91.15601563 64.36257813 -90.4375 65.0625 C-89.75300781 65.72378906 -89.06851562 66.38507813 -88.36328125 67.06640625 C-87.62464844 67.86949219 -86.88601563 68.67257812 -86.125 69.5 C-85.66496582 69.985896 -85.20493164 70.47179199 -84.73095703 70.97241211 C-81.07305662 75.317854 -80.67595832 78.5390052 -81.09033203 84.12646484 C-81.18427246 85.05410645 -81.27821289 85.98174805 -81.375 86.9375 C-81.93319435 93.92599999 -82.07960125 100.41691874 -81.25 107.375 C-80.73728213 113.74827788 -80.73728213 113.74827788 -82.40234375 116.9765625 C-84.19117328 119.00416358 -86.09540425 120.71713942 -88.125 122.5 C-89.30602741 123.97244976 -90.45386025 125.47230503 -91.5625 127 C-92.408125 128.155 -93.25375 129.31 -94.125 130.5 C-91.815 134.46 -89.505 138.42 -87.125 142.5 C-85.000625 142.005 -82.87625 141.51 -80.6875 141 C-66.44923064 138.06943251 -66.44923064 138.06943251 -61.5546875 141.08203125 C-59.6917641 142.46993572 -57.85100196 143.88798651 -56.03125 145.33203125 C-50.5179535 149.44477259 -44.18190918 152.15703747 -37.90625 154.9140625 C-34.90910609 156.62310805 -34.15374932 157.41624001 -32.9375 160.5625 C-32.628125 161.34753906 -32.31875 162.13257813 -32 162.94140625 C-30.80281265 166.44211032 -29.72335931 169.96515734 -28.73828125 173.53125 C-28.2979154 175.48202048 -28.2979154 175.48202048 -27.125 176.5 C-24.77186445 176.57271741 -22.41666332 176.58370868 -20.0625 176.5625 C-18.77214844 176.55347656 -17.48179687 176.54445313 -16.15234375 176.53515625 C-15.15332031 176.52355469 -14.15429688 176.51195312 -13.125 176.5 C-12.7125 175.406875 -12.3 174.31375 -11.875 173.1875 C-11.60042969 172.465625 -11.32585937 171.74375 -11.04296875 171 C-10.38920586 169.21953936 -9.77042702 167.42606702 -9.17578125 165.625 C-8.84964844 164.655625 -8.52351563 163.68625 -8.1875 162.6875 C-7.88972656 161.77355469 -7.59195313 160.85960937 -7.28515625 159.91796875 C-5.03983432 155.23832473 -1.22801665 154.03333637 3.4375 152.3125 C10.04751741 149.65553222 15.28273081 145.84527949 20.875 141.5 C25.86157155 138.17561897 30.91270478 139.14190182 36.578125 140.17578125 C40.01917133 140.91066058 43.44815534 141.70151192 46.875 142.5 C49.185 138.54 51.495 134.58 53.875 130.5 C53.029375 129.345 52.18375 128.19 51.3125 127 C50.83683594 126.3503125 50.36117187 125.700625 49.87109375 125.03125 C48.01004617 122.54863096 48.01004617 122.54863096 46.09375 120.80273438 C41.13009577 115.87403545 41.13009577 115.87403545 40.4206543 112.05273438 C40.44665723 109.32783322 40.67425339 106.70530897 41 104 C41.17474632 102.04888386 41.34136106 100.09702303 41.5 98.14453125 C41.57992187 97.18885254 41.65984375 96.23317383 41.7421875 95.24853516 C41.93168939 91.32682131 41.47453565 87.57323137 41 83.6875 C40.56852542 78.40732985 40.73672397 75.61585226 44 71.375 C45.25587825 70.04851013 46.54622479 68.75346001 47.875 67.5 C51.57327346 63.88416171 51.57327346 63.88416171 53 59.125 C51.36805311 55.31712393 49.18264271 51.93166056 46.875 48.5 C46.12476563 48.63277344 45.37453125 48.76554687 44.6015625 48.90234375 C41.36320102 49.46110385 38.12032861 49.98334981 34.875 50.5 C33.946875 50.66371094 33.01875 50.82742188 32.0625 50.99609375 C27.95094758 51.60405196 25.6596156 51.8923078 21.875 50 C20.885 49.175 19.895 48.35 18.875 47.5 C12.25104751 42.38373819 5.74449199 39.01288412 -2.12109375 36.25 C-6.12178065 33.91930074 -6.67990152 31.83978332 -8.125 27.5 C-8.58261719 26.26378906 -9.04023438 25.02757812 -9.51171875 23.75390625 C-10.71614583 20.3359375 -11.92057292 16.91796875 -13.125 13.5 C-17.745 13.5 -22.365 13.5 -27.125 13.5 Z " fill="#000000" transform="translate(440.125,318.5)"/>
<path d="M0 0 C8.14535924 7.87035515 12.77523454 16.85861531 13.00585938 28.26953125 C12.97175108 41.61724497 10.27176402 51.04558055 0.625 60.8125 C-8.73763057 68.78616889 -19.36746359 71.72763799 -31.50390625 71.1953125 C-41.94113175 70.16317517 -51.48975699 65.27872972 -58.625 57.5625 C-67.26496267 46.75652998 -68.4699128 35.1811764 -67.375 21.8125 C-65.17179991 11.02311443 -58.39578899 2.00205638 -49.375 -4.1875 C-32.8197771 -12.71862019 -14.60089834 -12.33110248 0 0 Z M-43.80078125 13.1875 C-48.66443878 18.20804971 -50.6757286 24.03546067 -50.9375 30.9375 C-50.54711151 38.75527984 -48.15983672 43.41948869 -42.4375 48.6875 C-36.77552131 53.52776011 -31.66718257 54.27804447 -24.375 54.1171875 C-16.84016305 53.35193062 -12.61038884 49.5134316 -7.8203125 43.91015625 C-3.55140773 37.71447554 -3.41798286 31.10446243 -4.375 23.8125 C-6.86708316 17.24085011 -10.97466453 11.88519774 -17.375 8.8125 C-26.77943822 5.47771797 -35.93569467 7.02743219 -43.80078125 13.1875 Z " fill="#000000" transform="translate(447.375,383.1875)"/>
</svg>
