<?xml version="1.0" encoding="UTF-8"?>
<svg version="1.1" xmlns="http://www.w3.org/2000/svg" width="512" height="512">
<path d="M0 0 C42.32283534 39.94295515 68.38489057 97.69104726 70.15649414 155.90087891 C70.19558752 159.01802299 70.20198693 162.13265332 70.1875 165.25 C70.18024902 166.88859985 70.18024902 166.88859985 70.17285156 168.56030273 C69.99430482 192.515919 69.99430482 192.515919 65.0625 198.8125 C59.82434149 202.98164657 55.73924578 204.35977424 49.0625 203.8125 C43.79010653 202.00257388 40.11729243 199.57797618 37.0625 194.8125 C35.86765927 191.22797781 35.99358542 188.02797124 36.0703125 184.3046875 C36.09073546 182.75741916 36.11005908 181.21013601 36.12841797 179.6628418 C36.13887146 178.85100433 36.14932495 178.03916687 36.16009521 177.20272827 C36.80020028 118.45348599 17.93023088 67.35513789 -22.9375 24.8125 C-25.49634841 22.3332838 -28.17836895 20.06541031 -30.9375 17.8125 C-31.44877441 17.38356445 -31.96004883 16.95462891 -32.48681641 16.51269531 C-41.79965157 8.70397687 -51.41352826 1.89128301 -61.9375 -4.1875 C-62.60475098 -4.57534668 -63.27200195 -4.96319336 -63.95947266 -5.36279297 C-108.27336497 -30.79928711 -161.66810089 -36.47145984 -210.90209961 -23.8659668 C-247.58946542 -13.77114909 -283.66216447 7.08258503 -307.9375 36.8125 C-308.36643555 37.32377441 -308.79537109 37.83504883 -309.23730469 38.36181641 C-317.04854028 47.67765358 -323.82525846 57.30600945 -329.9375 67.8125 C-330.2876416 68.40434082 -330.6377832 68.99618164 -330.99853516 69.60595703 C-356.80973849 113.6368333 -362.1523496 167.7478665 -349.61816406 216.77270508 C-339.5831207 253.27712356 -318.5771661 289.6393713 -288.9375 313.8125 C-287.90731373 314.68982436 -286.87738947 315.56745643 -285.84765625 316.4453125 C-270.81812544 329.05885779 -254.01726717 339.21098213 -235.9375 346.8125 C-234.99874023 347.2154126 -234.99874023 347.2154126 -234.04101562 347.62646484 C-206.00970854 359.49656641 -176.46968172 362.40601314 -146.35083008 361.70263672 C-145.57368652 361.68973602 -144.79654297 361.67683533 -143.99584961 361.6635437 C-142.53698599 361.63863637 -141.07825766 361.6013503 -139.62011719 361.54910278 C-134.28591394 361.47029984 -130.30549776 362.70323834 -126.29296875 366.27734375 C-122.25 371.375 -122.25 371.375 -121.9375 374.8125 C-121.834375 375.885 -121.73125 376.9575 -121.625 378.0625 C-122.00430611 382.61417332 -123.13286089 386.175468 -125.9375 389.8125 C-139.8672842 400.88027394 -168.2541506 396.54250041 -184.92138672 394.86938477 C-201.58777522 392.94222544 -218.13041487 389.4500971 -233.9375 383.8125 C-235.07904541 383.42118896 -235.07904541 383.42118896 -236.24365234 383.02197266 C-264.80290622 373.18041629 -290.50850877 358.01582309 -312.9375 337.8125 C-313.47955078 337.33071289 -314.02160156 336.84892578 -314.58007812 336.35253906 C-359.73882995 296.13874905 -386.0839027 238.95326568 -389.9375 178.8125 C-392.65978676 114.69922417 -370.66760621 55.04982598 -327.54882812 7.81420898 C-290.2705378 -32.3732856 -239.16836364 -56.81635712 -184.9375 -63.1875 C-183.85339844 -63.31898437 -182.76929688 -63.45046875 -181.65234375 -63.5859375 C-114.19467323 -70.16283818 -49.19528688 -45.63400148 0 0 Z " fill="#000000" transform="translate(415.9375,90.1875)"/>
<path d="M0 0 C1.42505859 0.73669922 1.42505859 0.73669922 2.87890625 1.48828125 C24.21840893 13.14571492 38.80881468 31.68407944 46.375 54.6875 C53.19648369 79.22673116 50.7236254 104.88276029 38.25 127.1875 C26.05463767 148.03493854 6.80139978 163.32980051 -16.4921875 170 C-41.33483043 175.96682417 -66.51011771 173.30477198 -88.6875 160.3125 C-110.12368233 146.30469769 -125.54422967 126.36283705 -131 101 C-133.97175899 85.071096 -133.44041797 67.30784273 -128 52 C-127.62617188 50.94167969 -127.25234375 49.88335937 -126.8671875 48.79296875 C-121.85232624 35.85728358 -114.7029002 25.71637645 -105 16 C-104.195625 15.18402344 -103.39125 14.36804688 -102.5625 13.52734375 C-93.91796648 5.2382598 -83.85023764 -0.13684744 -72.75 -4.375 C-72.12528809 -4.61371826 -71.50057617 -4.85243652 -70.85693359 -5.09838867 C-48.49476362 -13.1598489 -20.91398762 -11.22750915 0 0 Z M-80 38 C-80.64582031 38.53238281 -81.29164063 39.06476563 -81.95703125 39.61328125 C-92.17526963 48.9088796 -98.55867437 62.3373875 -99.375 76.03125 C-99.97428442 93.38233351 -95.63747549 105.87110714 -85.8125 120.1875 C-73.55305988 132.44694012 -58.45290422 139.84612411 -41 140.375 C-24.19179868 139.8442147 -9.33530613 132.86875219 2.1875 120.6875 C12.14135727 108.9238505 17.8753591 94.53232465 17.34765625 78.9765625 C16.07470602 68.07782009 13.06155088 58.2024029 7 49 C6.49855469 48.22269531 5.99710937 47.44539063 5.48046875 46.64453125 C-2.46812909 35.40819222 -15.45529328 27.18046457 -28.9296875 24.34375 C-29.61289062 24.2303125 -30.29609375 24.116875 -31 24 C-31.80695313 23.8659375 -32.61390625 23.731875 -33.4453125 23.59375 C-50.82022353 21.36489844 -66.7129497 26.93815619 -80 38 Z " fill="#000000" transform="translate(436,313)"/>
<path d="M0 0 C13.72357482 11.90454428 23.39171709 28.56205698 25.12109375 46.8125 C25.18490234 47.8334375 25.18490234 47.8334375 25.25 48.875 C25.32927734 50.050625 25.32927734 50.050625 25.41015625 51.25 C26.06424468 70.36075762 19.52296047 87.33894044 7.25 101.875 C6.70859375 102.52984375 6.1671875 103.1846875 5.609375 103.859375 C-4.30376613 114.77384351 -20.60818827 123.11678297 -35.33032227 124.03613281 C-57.45603399 124.37570829 -76.3627305 121.82436052 -92.86181641 105.87524414 C-94.17542991 104.55911763 -95.463748 103.21787945 -96.75 101.875 C-97.67039063 100.93140625 -97.67039063 100.93140625 -98.609375 99.96875 C-111.95467423 85.38522713 -115.66201304 66.51434579 -114.92041016 47.33496094 C-113.67757512 29.39397832 -104.70474888 13.94122015 -91.75 1.875 C-65.25757488 -20.84927177 -27.53565941 -21.07715503 0 0 Z M-73.7578125 31.19921875 C-80.55533175 40.2578375 -83.04903523 49.59236817 -81.75 60.875 C-79.27566042 71.34551042 -73.5219167 79.67765005 -64.75 85.875 C-55.10335764 91.5399138 -44.22473144 92.71150118 -33.34765625 90.0390625 C-22.76767013 85.98135869 -15.7824053 79.54618826 -10.87231445 69.36816406 C-6.96174918 60.41136251 -6.77283982 51.62697292 -9.734375 42.37890625 C-13.73609949 32.51311627 -21.3279459 24.71498166 -30.7734375 19.828125 C-46.31477317 13.7040299 -63.11164383 18.87534646 -73.7578125 31.19921875 Z " fill="#000000" transform="translate(300.75,148.125)"/>
<path d="M0 0 C1.03568115 0.09244995 1.03568115 0.09244995 2.09228516 0.18676758 C8.13894911 0.90264382 11.97955133 3.33600144 16.0625 7.75 C19.03884934 12.15940644 19.11510211 15.95601945 18.75 21.25 C16.88816624 26.61646201 13.60530211 30.37069294 8.75 33.25 C3.63305368 34.76267391 -1.20838045 34.19973391 -6.44140625 33.51953125 C-36.60384207 30.62494422 -67.07583474 38.97364527 -91.25 57.25 C-93.89727736 59.49628724 -96.46755733 61.7930827 -98.99609375 64.171875 C-105.15422216 69.84973343 -109.26861022 72.76152759 -117.71484375 72.5625 C-122.93335246 71.91923236 -126.02627148 69.50510617 -129.6875 65.75 C-131.95046371 60.68096129 -132.21715432 55.71157732 -131.25 50.25 C-118.08021415 26.91037953 -86.37318349 11.89500618 -61.58789062 4.83984375 C-41.46383215 -0.55153191 -20.71376749 -2.12419708 0 0 Z " fill="#000000" transform="translate(275.25,306.75)"/>
</svg>
