<?xml version="1.0" encoding="UTF-8"?>
<svg version="1.1" xmlns="http://www.w3.org/2000/svg" width="512" height="512">
<path d="M0 0 C4.7083994 2.63843379 8.48821564 6.12101391 12.375 9.8125 C13.52661744 10.89140079 14.67895771 11.96953056 15.83203125 13.046875 C16.38068848 13.56056641 16.9293457 14.07425781 17.49462891 14.60351562 C19.31814456 16.29513249 21.18018639 17.93668614 23.0625 19.5625 C26.43419107 22.47797917 29.72142867 25.48075642 33 28.5 C36.30026876 31.53890177 39.60949347 34.561561 43 37.5 C46.9308925 40.9067735 50.75196573 44.43002785 54.578125 47.953125 C57.35494057 50.50555143 60.14980717 53.02983288 63 55.5 C66.9249002 58.90158017 70.74410499 62.41551484 74.55834961 65.93994141 C78.08182321 69.18762583 81.67645799 72.32560635 85.37890625 75.3671875 C89.19544777 79.21131847 90.43058009 82.56073198 90.4375 87.9375 C90.46650391 89.43603516 90.46650391 89.43603516 90.49609375 90.96484375 C89.34569431 98.00311437 83.78672253 102.36971585 78.75 106.9375 C78.07541748 107.55794189 77.40083496 108.17838379 76.70581055 108.81762695 C72.85901055 112.34490523 68.97562587 115.82598645 65.01953125 119.23046875 C62.30513807 121.6088442 59.65427613 124.05508905 57 126.5 C53.09025645 130.10020455 49.14133329 133.64417782 45.125 137.125 C42.38176582 139.54550075 39.69115432 142.02200642 37 144.5 C33.08944385 148.10080913 29.141817 151.64761773 25.12109375 155.125 C22.92464381 157.06661321 20.77451589 159.05445333 18.62646484 161.04931641 C2.08052421 176.3967999 2.08052421 176.3967999 -9.015625 176.27734375 C-14.37049732 175.77970509 -16.81340277 173.24904972 -20.375 169.5 C-22.72325726 164.44221514 -22.97097307 159.48314207 -22 154 C-19.17460842 148.73386173 -15.12156206 145.0270527 -10.75 141.0625 C-10.07541748 140.44205811 -9.40083496 139.82161621 -8.70581055 139.18237305 C-4.85901055 135.65509477 -0.97562587 132.17401355 2.98046875 128.76953125 C5.694865 126.3911531 8.34560962 123.94479015 11 121.5 C17.18852602 115.80624683 23.42590779 110.2451504 30 105 C-4.94772185 104.9541238 -39.89543677 104.91893082 -74.84318228 104.89786934 C-78.97829995 104.89536822 -83.11341757 104.89277955 -87.24853516 104.89013672 C-88.48326628 104.88934979 -88.48326628 104.88934979 -89.74294147 104.88854696 C-103.03431761 104.87986765 -116.32567628 104.86411145 -129.61704209 104.84569441 C-143.27672748 104.82692625 -156.93640377 104.81586872 -170.59610152 104.81182301 C-179.01045849 104.80909223 -187.42476604 104.80049851 -195.83910778 104.78416707 C-201.62574543 104.7735146 -207.4123579 104.77041785 -213.19900462 104.77299725 C-216.52702296 104.77426584 -219.85488716 104.7713302 -223.18290138 104.76158905 C-262.54438754 104.65211561 -296.17097818 109.90714037 -325.5625 138.4921875 C-345.52142606 159.51143151 -354.62029106 184.22246058 -356.83691406 212.78613281 C-357.53217469 220.77349155 -358.61991481 224.78891907 -364.5 230.375 C-369.66500009 232.77303575 -374.4002288 232.75381535 -380 232 C-384.96355545 229.69549211 -387.45429356 226.79910839 -390 222 C-390.56285539 218.38430642 -390.52062391 214.83955044 -390.4375 211.1875 C-390.42356201 210.16575684 -390.40962402 209.14401367 -390.39526367 208.09130859 C-390.18036257 199.14946256 -389.0945898 190.68333488 -387 182 C-386.84966309 181.33935547 -386.69932617 180.67871094 -386.54443359 179.99804688 C-380.43156939 153.82000746 -365.86584574 130.82063488 -347 112 C-346.15308594 111.14148438 -345.30617188 110.28296875 -344.43359375 109.3984375 C-319.81458398 85.7190846 -285.02992976 71.87147896 -251.0348053 71.84178162 C-249.83234348 71.83684364 -248.62988167 71.83190566 -247.39098161 71.82681805 C-244.06612693 71.8141436 -240.74131377 71.80583551 -237.41644466 71.79939139 C-233.82620171 71.79136182 -230.23597975 71.7776729 -226.64575195 71.76467896 C-220.42966942 71.74295237 -214.21358472 71.72479398 -207.99748421 71.70907402 C-199.0100985 71.68634055 -190.02273608 71.65820258 -181.03537016 71.62875474 C-166.45319652 71.58112142 -151.87101334 71.53784572 -137.28881836 71.49731445 C-123.12539936 71.45793783 -108.96198882 71.41650643 -94.79858398 71.37231445 C-93.92523334 71.36959018 -93.0518827 71.36686591 -92.15206689 71.36405908 C-87.77062835 71.35037925 -83.38918994 71.33665904 -79.00775158 71.32291877 C-42.67185198 71.20902093 -6.3359343 71.10219681 30 71 C29.33613281 70.40251953 28.67226563 69.80503906 27.98828125 69.18945312 C-5 39.5 -5 39.5 -7.46875 37.26953125 C-9.22837826 35.69183986 -11.00017417 34.12765708 -12.78125 32.57421875 C-13.6784375 31.78660156 -14.575625 30.99898437 -15.5 30.1875 C-16.72203125 29.12595703 -16.72203125 29.12595703 -17.96875 28.04296875 C-21.69560752 24.29461013 -22.30837234 21.36193432 -22.375 16.125 C-22.27363418 10.91733093 -21.69948398 7.89419367 -18 4 C-12.87322962 -0.87043186 -6.74482111 -1.1943954 0 0 Z " fill="#000000" transform="translate(406,48)"/>
<path d="M0 0 C4.96355545 2.30450789 7.45429356 5.20089161 10 10 C10.56285484 13.61569001 10.52063066 17.16045288 10.4375 20.8125 C10.42356201 21.83351807 10.40962402 22.85453613 10.39526367 23.90649414 C9.47384015 62.22510697 -9.11279676 96.07797576 -35.6796875 122.68359375 C-55.98151846 141.99141815 -82.56448787 154.21513653 -110 159 C-110.97242929 159.17293548 -111.94485857 159.34587095 -112.94675541 159.5240469 C-118.26295837 160.26867728 -123.6074097 160.15353795 -128.9651947 160.15821838 C-130.76888743 160.16562535 -130.76888743 160.16562535 -132.60901839 160.17318195 C-135.93387307 160.1858564 -139.25868623 160.19416449 -142.58355534 160.20060861 C-146.17379829 160.20863818 -149.76402025 160.2223271 -153.35424805 160.23532104 C-159.57033058 160.25704763 -165.78641528 160.27520602 -172.00251579 160.29092598 C-180.9899015 160.31365945 -189.97726392 160.34179742 -198.96462984 160.37124526 C-213.54680348 160.41887858 -228.12898666 160.46215428 -242.71118164 160.50268555 C-256.87460064 160.54206217 -271.03801118 160.58349357 -285.20141602 160.62768555 C-286.07476666 160.63040982 -286.9481173 160.63313409 -287.84793311 160.63594092 C-292.22937165 160.64962075 -296.61081006 160.66334096 -300.99224842 160.67708123 C-337.32814802 160.79097907 -373.6640657 160.89780319 -410 161 C-409.00419922 161.8962207 -409.00419922 161.8962207 -407.98828125 162.81054688 C-375 192.5 -375 192.5 -372.53125 194.73046875 C-370.77162174 196.30816014 -368.99982583 197.87234292 -367.21875 199.42578125 C-366.3215625 200.21339844 -365.424375 201.00101563 -364.5 201.8125 C-363.6853125 202.52019531 -362.870625 203.22789062 -362.03125 203.95703125 C-358.30439248 207.70538987 -357.69162766 210.63806568 -357.625 215.875 C-357.72636582 221.08266907 -358.30051602 224.10580633 -362 228 C-366.64648254 232.41415841 -370.88793066 232.46758261 -377 232.53125 C-383.37905599 231.4016255 -387.8307387 226.50342695 -392.375 222.1875 C-393.52661744 221.10859921 -394.67895771 220.03046944 -395.83203125 218.953125 C-396.38068848 218.43943359 -396.9293457 217.92574219 -397.49462891 217.39648438 C-399.31814456 215.70486751 -401.18018639 214.06331386 -403.0625 212.4375 C-406.43419107 209.52202083 -409.72142867 206.51924358 -413 203.5 C-416.30026876 200.46109823 -419.60949347 197.438439 -423 194.5 C-426.9308925 191.0932265 -430.75196573 187.56997215 -434.578125 184.046875 C-437.35494057 181.49444857 -440.14980717 178.97016712 -443 176.5 C-446.9249002 173.09841983 -450.74410499 169.58448516 -454.55834961 166.06005859 C-458.08182321 162.81237417 -461.67645799 159.67439365 -465.37890625 156.6328125 C-469.19544777 152.78868153 -470.43058009 149.43926802 -470.4375 144.0625 C-470.45683594 143.06347656 -470.47617187 142.06445312 -470.49609375 141.03515625 C-469.34569431 133.99688563 -463.78672253 129.63028415 -458.75 125.0625 C-458.07541748 124.44205811 -457.40083496 123.82161621 -456.70581055 123.18237305 C-452.85901055 119.65509477 -448.97562587 116.17401355 -445.01953125 112.76953125 C-442.30513807 110.3911558 -439.65427613 107.94491095 -437 105.5 C-433.09025645 101.89979545 -429.14133329 98.35582218 -425.125 94.875 C-422.38176582 92.45449925 -419.69115432 89.97799358 -417 87.5 C-413.08944385 83.89919087 -409.141817 80.35238227 -405.12109375 76.875 C-402.92464381 74.93338679 -400.77451589 72.94554667 -398.62646484 70.95068359 C-382.08052421 55.6032001 -382.08052421 55.6032001 -370.984375 55.72265625 C-365.62950268 56.22029491 -363.18659723 58.75095028 -359.625 62.5 C-357.27674274 67.55778486 -357.02902693 72.51685793 -358 78 C-360.82539158 83.26613827 -364.87843794 86.9729473 -369.25 90.9375 C-370.26187378 91.86816284 -370.26187378 91.86816284 -371.29418945 92.81762695 C-375.14098945 96.34490523 -379.02437413 99.82598645 -382.98046875 103.23046875 C-385.694865 105.6088469 -388.34560962 108.05520985 -391 110.5 C-397.18852602 116.19375317 -403.42590779 121.7548496 -410 127 C-375.05227815 127.0458762 -340.10456323 127.08106918 -305.15681772 127.10213066 C-301.02170005 127.10463178 -296.88658243 127.10722045 -292.75146484 127.10986328 C-291.92831076 127.1103879 -291.10515668 127.11091252 -290.25705853 127.11145304 C-276.96568239 127.12013235 -263.67432372 127.13588855 -250.38295791 127.15430559 C-236.72327252 127.17307375 -223.06359623 127.18413128 -209.40389848 127.18817699 C-200.98954151 127.19090777 -192.57523396 127.19950149 -184.16089222 127.21583293 C-178.37425457 127.2264854 -172.5876421 127.22958215 -166.80099538 127.22700275 C-163.47297704 127.22573416 -160.14511284 127.2286698 -156.81709862 127.23841095 C-117.45561246 127.34788439 -83.82902182 122.09285963 -54.4375 93.5078125 C-34.47857394 72.48856849 -25.37970894 47.77753942 -23.16308594 19.21386719 C-22.46782531 11.22650845 -21.38008519 7.21108093 -15.5 1.625 C-10.33499991 -0.77303575 -5.5997712 -0.75381535 0 0 Z " fill="#000000" transform="translate(486,232)"/>
</svg>
