<?xml version="1.0" encoding="UTF-8"?>
<svg version="1.1" xmlns="http://www.w3.org/2000/svg" width="512" height="512">
<path d="M0 0 C0.99930038 -0.0071553 1.99860077 -0.01431061 3.02818298 -0.02168274 C4.66382202 -0.02571609 4.66382202 -0.02571609 6.33250427 -0.02983093 C8.0625193 -0.03968773 8.0625193 -0.03968773 9.82748413 -0.04974365 C13.64873826 -0.06947141 17.46995305 -0.08113946 21.29124451 -0.09111023 C22.59775404 -0.09518576 23.90426357 -0.09926128 25.2503643 -0.10346031 C31.45523936 -0.1225055 37.66010261 -0.13673494 43.86500126 -0.14507228 C51.00490548 -0.15482647 58.14449818 -0.18110075 65.28429276 -0.22157317 C70.81656153 -0.25184605 76.34874161 -0.26655188 81.88109154 -0.26985329 C85.17857323 -0.27219214 88.47564809 -0.28300625 91.77305794 -0.30631447 C95.46109139 -0.33075907 99.14832023 -0.3297303 102.83641052 -0.32279968 C103.91266693 -0.33560974 104.98892334 -0.3484198 106.09779358 -0.36161804 C118.2583598 -0.27875494 127.52054229 3.80973641 136.16624451 12.21748352 C142.91594771 19.35252889 147.13550305 27.16810117 147.18450928 37.10983276 C147.19524223 38.60878334 147.19524223 38.60878334 147.20619202 40.13801575 C147.20888092 41.22844177 147.21156982 42.3188678 147.21434021 43.44233704 C147.22091141 44.59568039 147.2274826 45.74902374 147.23425293 46.93731689 C147.25398069 50.75857102 147.26564874 54.57978581 147.27561951 58.40107727 C147.27969503 59.7075868 147.28377056 61.01409634 147.28796959 62.36019707 C147.30701478 68.56507212 147.32124422 74.76993537 147.32958156 80.97483402 C147.33933575 88.11473825 147.36561003 95.25433095 147.40608245 102.39412552 C147.43635533 107.9263943 147.45106116 113.45857438 147.45436257 118.9909243 C147.45670141 122.28840599 147.46751552 125.58548085 147.49082375 128.8828907 C147.51526834 132.57092415 147.51423957 136.25815299 147.50730896 139.94624329 C147.52652405 141.5606279 147.52652405 141.5606279 147.54612732 143.20762634 C147.46326421 155.36819256 143.37477287 164.63037505 134.96702576 173.27607727 C127.83198038 180.02578047 120.01640811 184.24533582 110.07467651 184.29434204 C109.07537613 184.30149734 108.07607574 184.30865265 107.04649353 184.31602478 C105.41085449 184.32005814 105.41085449 184.32005814 103.74217224 184.32417297 C102.01215721 184.33402977 102.01215721 184.33402977 100.24719238 184.34408569 C96.42593826 184.36381345 92.60472346 184.3754815 88.78343201 184.38545227 C87.47692247 184.3895278 86.17041294 184.39360332 84.82431221 184.39780235 C78.61943715 184.41684754 72.4145739 184.43107698 66.20967525 184.43941432 C59.06977103 184.44916851 51.93017833 184.47544279 44.79038376 184.51591522 C39.25811498 184.5461881 33.7259349 184.56089392 28.19358498 184.56419533 C24.89610329 184.56653418 21.59902843 184.57734829 18.30161858 184.60065651 C14.61358513 184.62510111 10.92635628 184.62407234 7.23826599 184.61714172 C5.62388138 184.63635681 5.62388138 184.63635681 3.97688293 184.65596008 C-8.18368328 184.57309698 -17.44586578 180.48460563 -26.09156799 172.07685852 C-32.84127119 164.94181315 -37.06082654 157.12624087 -37.10983276 147.18450928 C-37.12056572 145.6855587 -37.12056572 145.6855587 -37.1315155 144.15632629 C-37.13420441 143.06590027 -37.13689331 141.97547424 -37.1396637 140.852005 C-37.14623489 139.69866165 -37.15280609 138.5453183 -37.15957642 137.35702515 C-37.17930417 133.53577102 -37.19097223 129.71455623 -37.20094299 125.89326477 C-37.20501852 124.58675524 -37.20909405 123.2802457 -37.21329308 121.93414497 C-37.23233827 115.72926992 -37.2465677 109.52440667 -37.25490505 103.31950802 C-37.26465923 96.1796038 -37.29093352 89.0400111 -37.33140594 81.90021652 C-37.36167882 76.36794774 -37.37638465 70.83576767 -37.37968606 65.30341774 C-37.3820249 62.00593605 -37.39283901 58.70886119 -37.41614723 55.41145134 C-37.44059183 51.72341789 -37.43956306 48.03618905 -37.43263245 44.34809875 C-37.4454425 43.27184235 -37.45825256 42.19558594 -37.47145081 41.0867157 C-37.3885877 28.92614948 -33.30009635 19.66396699 -24.89234924 11.01826477 C-17.75730387 4.26856157 -9.94173159 0.04900623 0 0 Z M-7.90016174 30.89717102 C-12.06433508 37.45889871 -12.25780885 43.5994042 -12.23731995 51.16230774 C-12.24243088 52.14373749 -12.24754181 53.12516724 -12.25280762 54.13633728 C-12.26665789 57.36657382 -12.2657502 60.59659589 -12.26344299 63.82685852 C-12.26733253 66.08215921 -12.27166773 68.33745916 -12.27642822 70.59275818 C-12.2838807 75.31518429 -12.28360625 80.03753563 -12.27833557 84.75996399 C-12.27254341 90.79783793 -12.2894708 96.83540487 -12.31268024 102.87322807 C-12.32744527 107.52993038 -12.32828548 112.18655923 -12.32517052 116.84328079 C-12.32568237 119.06871778 -12.33089447 121.29415903 -12.34098244 123.51957321 C-12.35338255 126.6376641 -12.34653339 129.75516311 -12.3349762 132.87324524 C-12.34261993 133.78366577 -12.35026367 134.6940863 -12.35813904 135.63209534 C-12.30716983 141.88487887 -11.74022112 148.6778475 -7.68774891 153.73960686 C-1.4153234 159.45914328 6.06786168 159.44346059 14.05247498 159.42182922 C15.03390472 159.42694016 16.01533447 159.43205109 17.02650452 159.43731689 C20.25674106 159.45116717 23.48676313 159.45025948 26.71702576 159.44795227 C28.97232644 159.4518418 31.2276264 159.456177 33.48292542 159.4609375 C38.20535153 159.46838998 42.92770287 159.46811552 47.65013123 159.46284485 C53.68800517 159.45705268 59.7255721 159.47398008 65.76339531 159.49718952 C70.42009761 159.51195455 75.07672646 159.51279476 79.73344803 159.50967979 C81.95888502 159.51019165 84.18432626 159.51540375 86.40974045 159.52549171 C89.52783134 159.53789183 92.64533035 159.53104266 95.76341248 159.51948547 C96.67383301 159.52712921 97.58425354 159.53477295 98.52226257 159.54264832 C104.7750461 159.49167911 111.56801473 158.92473039 116.62977409 154.87225819 C122.34931052 148.59983267 122.33362783 141.1166476 122.31199646 133.1320343 C122.31710739 132.15060455 122.32221832 131.1691748 122.32748413 130.15800476 C122.3413344 126.92776822 122.34042672 123.69774615 122.33811951 120.46748352 C122.34200904 118.21218283 122.34634424 115.95688288 122.35110474 113.70158386 C122.35855722 108.97915775 122.35828276 104.25680641 122.35301208 99.53437805 C122.34721992 93.49650411 122.36414732 87.45893717 122.38735676 81.42111397 C122.40212179 76.76441166 122.40296199 72.10778282 122.39984703 67.45106125 C122.40035888 65.22562426 122.40557099 63.00018301 122.41565895 60.77476883 C122.42805906 57.65667794 122.4212099 54.53917893 122.40965271 51.4210968 C122.41729645 50.51067627 122.42494019 49.60025574 122.43281555 48.6622467 C122.38184635 42.40946317 121.81489763 35.61649454 117.76242542 30.55473518 C111.48999991 24.83519876 104.00681483 24.85088145 96.02220154 24.87251282 C95.04077179 24.86740189 94.05934204 24.86229095 93.048172 24.85702515 C89.81793546 24.84317488 86.58791338 24.84408256 83.35765076 24.84638977 C81.10235007 24.84250024 78.84705011 24.83816504 76.5917511 24.83340454 C71.86932499 24.82595206 67.14697365 24.82622652 62.42454529 24.83149719 C56.38667135 24.83728936 50.34910441 24.82036196 44.3112812 24.79715252 C39.6545789 24.78238749 34.99795005 24.78154728 30.34122849 24.78466225 C28.1157915 24.78415039 25.89035025 24.77893829 23.66493607 24.76885033 C20.54684518 24.75645021 17.42934616 24.76329938 14.31126404 24.77485657 C12.94563324 24.76339096 12.94563324 24.76339096 11.55241394 24.75169373 C4.61667088 24.80823004 -2.97434675 25.49519342 -7.90016174 30.89717102 Z " fill="#000000" transform="translate(200.96266174316406,163.8528289794922)"/>
<path d="M0 0 C6.88655573 4.88055014 12.70030971 11.56404321 18.63867188 17.52514648 C19.6839585 18.57071576 20.72946652 19.61606374 21.775177 20.66120911 C24.59090566 23.47665284 27.40355744 26.29515182 30.2156353 29.11424136 C33.1633139 32.0682045 36.11385666 35.01930407 39.06408691 37.97071838 C44.64030519 43.55003501 50.21397114 49.13189406 55.7867074 54.71468836 C62.13544851 61.07463723 68.48705597 67.43172023 74.83889675 73.78857315 C87.89577265 86.85587954 100.94907407 99.92675123 114 113 C114.00586624 112.36408432 114.01173248 111.72816864 114.01777649 111.07298279 C114.08184902 104.43760751 114.16630467 97.80271101 114.26245117 91.16772461 C114.29564804 88.69350508 114.32369618 86.21921078 114.34643555 83.74487305 C114.38007701 80.18245666 114.43239987 76.62072228 114.48828125 73.05859375 C114.49467117 71.95728622 114.5010611 70.8559787 114.50764465 69.72129822 C114.64402334 62.55206753 115.24182891 57.27532817 120 51.625 C123.76069759 48.56943321 127.3174006 48.68253563 132 49 C135.38370163 50.23635252 137.39323319 51.24029465 139.6466217 54.06166077 C141.48856221 58.0607245 141.42784782 61.47294468 141.40405273 65.82592773 C141.41091599 66.70459503 141.41777924 67.58326233 141.42485046 68.48855591 C141.44312055 71.38706721 141.43928063 74.28503734 141.43359375 77.18359375 C141.43815548 79.20231807 141.44346103 81.22104084 141.44947815 83.23976135 C141.4584097 87.46890576 141.45598562 91.69786134 141.44604492 95.92700195 C141.43455593 101.34207811 141.45476564 106.7565021 141.48396206 112.17149258 C141.50232323 116.33999256 141.50203173 120.50833625 141.49632454 124.67686653 C141.49617131 126.67312599 141.50221687 128.66939603 141.51461601 130.66561699 C141.52952229 133.45905133 141.51885158 136.25128066 141.50170898 139.04467773 C141.51621094 140.27691322 141.51621094 140.27691322 141.53100586 141.53404236 C141.46319543 146.82082526 140.47336881 149.79030255 137 154 C131.69652057 158.67211283 128.4311832 159.15471035 121.51464844 159.17700195 C120.19730461 159.18685875 120.19730461 159.18685875 118.85334778 159.19691467 C115.93868937 159.21667087 113.02408256 159.22831597 110.109375 159.23828125 C109.11473488 159.24235678 108.12009476 159.2464323 107.09531403 159.25063133 C101.82998359 159.27150285 96.56467929 159.28579939 91.29931641 159.29516602 C85.86067418 159.30622739 80.42244145 159.34062119 74.98394394 159.38033772 C70.80260457 159.40648629 66.62136297 159.41485634 62.43994904 159.41844749 C60.43529752 159.42331869 58.43065052 159.4349478 56.4260788 159.45348549 C53.6180329 159.47783734 50.81104889 159.476919 48.00292969 159.4699707 C46.7636245 159.48918579 46.7636245 159.48918579 45.49928284 159.50878906 C40.20413382 159.46110246 37.21159918 158.49742543 33 155 C30.26814083 151.00485335 30.32760302 146.67437416 31 142 C33.0050088 138.1973971 34.42686262 136.38209159 38 134 C41.46792365 133.09803094 44.76725111 132.8555456 48.34106445 132.79467773 C49.3817659 132.77473251 50.42246735 132.75478729 51.4947052 132.73423767 C53.16215034 132.70916893 53.16215034 132.70916893 54.86328125 132.68359375 C56.01040085 132.66281265 57.15752045 132.64203156 58.33940125 132.62062073 C61.99704098 132.55533381 65.65475138 132.49633714 69.3125 132.4375 C71.79492913 132.39429496 74.27735116 132.35068003 76.75976562 132.30664062 C82.83976945 132.19967378 88.91984329 132.09786886 95 132 C94.42462557 131.42739095 93.84925114 130.85478189 93.25644112 130.26482105 C79.26058157 116.33519779 65.27302047 102.39728962 51.29466438 88.4501009 C44.53465301 81.70556221 37.77185555 74.96386204 31.00244141 68.22875977 C25.10262963 62.35883794 19.20809992 56.483672 13.31986797 50.60213345 C10.20155356 47.48773196 7.08064769 44.37603054 3.95340347 41.27059364 C1.01015059 38.34769939 -1.92598939 35.41784561 -4.85682297 32.48250008 C-5.93376436 31.40638416 -7.0132802 30.33283758 -8.09554291 29.26207352 C-9.57324458 27.79930596 -11.04138972 26.32756031 -12.50753784 24.85322571 C-13.33162077 24.03190816 -14.1557037 23.21059061 -15.00475883 22.36438465 C-18.19642198 18.58222563 -19.01593265 16.00375669 -18.9375 11.0625 C-18.19745017 6.4567781 -16.35370717 4.20126594 -13 1 C-8.85864752 -1.57435424 -4.55084305 -1.5684002 0 0 Z " fill="#000000" transform="translate(371,353)"/>
<path d="M0 0 C3.33175125 2.56974488 5.43000429 4.86522881 6.29296875 8.98828125 C6.43557116 17.68702812 1.74643001 21.41644893 -4.0420208 27.40330505 C-6.75620222 30.16061833 -9.49116101 32.89639315 -12.23217773 35.62695312 C-13.27774701 36.67223975 -14.32309499 37.71774777 -15.36824036 38.76345825 C-18.18368409 41.57918691 -21.00218307 44.39183869 -23.82127261 47.20391655 C-26.77523575 50.15159515 -29.72633532 53.10213791 -32.67774963 56.05236816 C-38.25706626 61.62858644 -43.83892531 67.20225239 -49.42171961 72.77498865 C-55.78166848 79.12372976 -62.13875148 85.47533722 -68.4956044 91.827178 C-81.56291079 104.8840539 -94.63378248 117.93735532 -107.70703125 130.98828125 C-106.74982681 131.00041153 -106.74982681 131.00041153 -105.77328491 131.01278687 C-99.12193118 131.098951 -92.47087141 131.19845997 -85.81982422 131.30566406 C-83.33875471 131.34390916 -80.8576306 131.37876978 -78.37646484 131.41015625 C-74.80676786 131.45590327 -71.23744531 131.51388294 -67.66796875 131.57421875 C-66.56149994 131.58576996 -65.45503113 131.59732117 -64.31503296 131.60922241 C-52.12154751 131.84204457 -52.12154751 131.84204457 -46.89453125 136.48828125 C-43.55610709 140.30362314 -43.36629166 142.73302647 -43.421875 147.6640625 C-43.86048995 151.23907478 -45.36538517 153.32140655 -47.70703125 155.98828125 C-51.53341199 158.72602993 -55.9102423 158.2837499 -60.41943359 158.27880859 C-61.29795486 158.28552582 -62.17647614 158.29224304 -63.08161926 158.29916382 C-65.98545998 158.31815962 -68.88906977 158.32206881 -71.79296875 158.32421875 C-73.81312149 158.33064555 -75.83327329 158.33737382 -77.85342407 158.34439087 C-82.08850258 158.35636757 -86.3234995 158.36007128 -90.55859375 158.35888672 C-95.98151574 158.3586835 -101.40391382 158.38598683 -106.82671165 158.42043114 C-110.99948523 158.4426844 -115.17213242 158.44672474 -119.34495926 158.44566727 C-121.34401887 158.44802555 -123.34308184 158.45686184 -125.34208298 158.472332 C-128.1403736 158.49196006 -130.9375304 158.48616645 -133.73583984 158.47412109 C-134.55890121 158.48536011 -135.38196259 158.49659912 -136.22996521 158.50817871 C-141.52412974 158.45036147 -144.49215538 157.46887553 -148.70703125 153.98828125 C-153.38643281 148.67652813 -153.85890023 145.41403 -153.86816406 138.48706055 C-153.87312897 137.60722504 -153.87809387 136.72738953 -153.88320923 135.82089233 C-153.89785018 132.90142035 -153.90463636 129.98200271 -153.91015625 127.0625 C-153.91590648 125.0370941 -153.92166423 123.01168821 -153.9274292 120.98628235 C-153.93794494 116.73507432 -153.94378373 112.48388523 -153.94726562 108.23266602 C-153.952749 102.78503243 -153.97677134 97.33764896 -154.00523758 91.8900938 C-154.02386171 87.70450612 -154.02906946 83.51897867 -154.0306015 79.33335304 C-154.03362949 77.32509813 -154.04166291 75.31684431 -154.05478668 73.30862999 C-154.07184101 70.4981218 -154.0699683 67.68822449 -154.06347656 64.87768555 C-154.07269135 64.04788681 -154.08190613 63.21808807 -154.09140015 62.36314392 C-154.05801448 57.74915985 -153.70601499 54.72918807 -150.70703125 50.98828125 C-146.31385229 48.09277694 -142.92234542 47.42949759 -137.70703125 47.98828125 C-134.07556779 49.31516213 -132.20705341 50.31583765 -129.89453125 53.42578125 C-128.04280997 57.42160086 -127.57631199 60.82490057 -127.50170898 65.21582031 C-127.48176376 66.25659729 -127.46181854 67.29737427 -127.44126892 68.36968994 C-127.42455643 69.48648132 -127.40784393 70.60327271 -127.390625 71.75390625 C-127.3698439 72.9024408 -127.34906281 74.05097534 -127.32765198 75.23431396 C-127.26228132 78.90224236 -127.20332931 82.57024218 -127.14453125 86.23828125 C-127.10133418 88.72526779 -127.0577195 91.21224712 -127.01367188 93.69921875 C-126.90661267 99.79549747 -126.804823 105.8918472 -126.70703125 111.98828125 C-126.13534399 111.41290682 -125.56365673 110.83753239 -124.97464561 110.24472237 C-111.06424691 96.24599049 -97.14279095 82.25833995 -83.20894432 68.28294563 C-76.47090905 61.52428423 -69.73666825 54.76192166 -63.01123047 47.99072266 C-57.14940468 42.08903091 -51.28058403 36.19440159 -45.4032532 30.30814922 C-42.29142441 27.19110534 -39.18321416 24.07063623 -36.08335495 20.94168472 C-33.16507775 17.9962425 -30.23753316 15.0603405 -27.30263901 12.13145828 C-26.22767322 11.05539276 -25.15612655 9.9758989 -24.08831024 8.89273834 C-22.62815 7.41263356 -21.15610845 5.94543592 -19.68051147 4.48074341 C-18.86011572 3.65666048 -18.03971996 2.83257755 -17.19446373 1.98352242 C-12.07842279 -2.12020123 -5.90928993 -3.50230227 0 0 Z " fill="#000000" transform="translate(153.70703125,354.01171875)"/>
<path d="M0 0 C0.8786673 -0.00686325 1.75733459 -0.0137265 2.66262817 -0.02079773 C5.56113947 -0.03906782 8.4591096 -0.03522789 11.35766602 -0.02954102 C13.37639034 -0.03410275 15.39511311 -0.0394083 17.41383362 -0.04542542 C21.64297803 -0.05435696 25.87193361 -0.05193288 30.10107422 -0.04199219 C35.51615037 -0.0305032 40.93057436 -0.0507129 46.34556484 -0.07990932 C50.51406483 -0.09827049 54.68240852 -0.097979 58.8509388 -0.0922718 C60.84719825 -0.09211858 62.8434683 -0.09816414 64.83968925 -0.11056328 C67.6331236 -0.12546955 70.42535292 -0.11479885 73.21875 -0.09765625 C74.04024033 -0.10732422 74.86173065 -0.11699219 75.70811462 -0.12695312 C80.99489752 -0.0591427 83.96437481 0.93068392 88.17407227 4.40405273 C92.84618509 9.70753216 93.32878261 12.97286954 93.35107422 19.8894043 C93.35764542 20.76763351 93.36421661 21.64586273 93.37098694 22.55070496 C93.39074314 25.46536337 93.40238824 28.37997017 93.41235352 31.29467773 C93.41642904 32.28931786 93.42050457 33.28395798 93.4247036 34.30873871 C93.44557512 39.57406915 93.45987165 44.83937345 93.46923828 50.10473633 C93.48029965 55.54337855 93.51469345 60.98161129 93.55440998 66.4201088 C93.58055855 70.60144816 93.58892861 74.78268976 93.59251976 78.9641037 C93.59739095 80.96875522 93.60902007 82.97340222 93.62755775 84.97797394 C93.6519096 87.78601983 93.65099127 90.59300385 93.64404297 93.40112305 C93.65685303 94.22732651 93.66966309 95.05352997 93.68286133 95.9047699 C93.63517473 101.19991891 92.6714977 104.19245355 89.17407227 108.40405273 C85.17892561 111.13591191 80.84844642 111.07644971 76.17407227 110.40405273 C72.37146937 108.39904393 70.55616385 106.97719011 68.17407227 103.40405273 C67.27210321 99.93612908 67.02961787 96.63680162 66.96875 93.06298828 C66.94880478 92.02228683 66.92885956 90.98158539 66.90830994 89.90934753 C66.8832412 88.24190239 66.8832412 88.24190239 66.85766602 86.54077148 C66.83688492 85.39365189 66.81610382 84.24653229 66.79469299 83.06465149 C66.72940608 79.40701175 66.6704094 75.74930135 66.61157227 72.09155273 C66.56836722 69.60912361 66.5247523 67.12670158 66.48071289 64.64428711 C66.37374604 58.56428328 66.27194113 52.48420945 66.17407227 46.40405273 C65.60238501 46.97942717 65.03069775 47.5548016 64.44168663 48.14761162 C50.53128792 62.1463435 36.60983197 76.13399404 22.67598534 90.10938835 C15.93795006 96.86804975 9.20370927 103.63041233 2.47827148 110.40161133 C-3.38355431 116.30330307 -9.25237495 122.19793239 -15.12970579 128.08418477 C-18.24153458 131.20122865 -21.34974482 134.32169775 -24.44960403 137.45064926 C-27.36788124 140.39609148 -30.29542583 143.33199348 -33.23031998 146.2608757 C-34.30528577 147.33694123 -35.37683243 148.41643508 -36.44464874 149.49959564 C-37.90480899 150.97970042 -39.37685053 152.44689807 -40.85244751 153.91159058 C-41.67284327 154.7356735 -42.49323902 155.55975643 -43.33849525 156.40881157 C-47.16535185 159.47844336 -50.45572228 160.42852069 -55.32592773 160.34155273 C-60.43374529 158.97338732 -63.41464426 156.67437832 -66.26342773 152.09155273 C-67.06119795 148.27998394 -67.08956295 145.07059494 -65.82592773 141.40405273 C-60.94537759 134.517497 -54.26188453 128.70374302 -48.30078125 122.76538086 C-47.25521197 121.72009423 -46.20986399 120.67458621 -45.16471863 119.62887573 C-42.34927489 116.81314707 -39.53077591 114.0004953 -36.71168637 111.18841743 C-33.75772324 108.24073883 -30.80662366 105.29019608 -27.85520935 102.33996582 C-22.27589272 96.76374755 -16.69403367 91.19008159 -11.11123937 85.61734533 C-4.75129051 79.26860423 1.6057925 72.91699676 7.96264541 66.56515598 C21.0299518 53.50828008 34.1008235 40.45497867 47.17407227 27.40405273 C46.53815659 27.39818649 45.90224091 27.39232025 45.24705505 27.38627625 C38.61167977 27.32220371 31.97678328 27.23774806 25.34179688 27.14160156 C22.86757735 27.10840469 20.39328305 27.08035656 17.91894531 27.05761719 C14.35652893 27.02397572 10.79479455 26.97165287 7.23266602 26.91577148 C6.13135849 26.90938156 5.03005096 26.90299164 3.89537048 26.89640808 C-3.2738602 26.7600294 -8.55059957 26.16222382 -14.20092773 21.40405273 C-17.25649453 17.64335514 -17.1433921 14.08665213 -16.82592773 9.40405273 C-15.58957522 6.0203511 -14.58563308 4.01081954 -11.76426697 1.75743103 C-7.76520324 -0.08450948 -4.35298305 -0.02379508 0 0 Z " fill="#000000" transform="translate(418.825927734375,-0.404052734375)"/>
<path d="M0 0 C0.87983551 -0.0049649 1.75967102 -0.00992981 2.66616821 -0.01504517 C5.5856402 -0.02968612 8.50505783 -0.0364723 11.42456055 -0.04199219 C13.44996645 -0.04774242 15.47537234 -0.05350017 17.5007782 -0.05926514 C21.75198623 -0.06978088 26.00317532 -0.07561967 30.25439453 -0.07910156 C35.70202812 -0.08458494 41.14941159 -0.10860728 46.59696674 -0.13707352 C50.78255443 -0.15569765 54.96808188 -0.1609054 59.1537075 -0.16243744 C61.16196242 -0.16546542 63.17021624 -0.17349884 65.17843056 -0.18662262 C67.98893875 -0.20367694 70.79883606 -0.20180424 73.609375 -0.1953125 C74.43917374 -0.20452728 75.26897247 -0.21374207 76.12391663 -0.22323608 C80.7379007 -0.18985041 83.75787248 0.16214907 87.4987793 3.16113281 C90.39428361 7.55431177 91.05756296 10.94581864 90.4987793 16.16113281 C89.17189842 19.79259627 88.17122289 21.66111065 85.0612793 23.97363281 C81.06545969 25.82535409 77.66215998 26.29185207 73.27124023 26.36645508 C72.23046326 26.3864003 71.18968628 26.40634552 70.11737061 26.42689514 C69.00057922 26.44360764 67.88378784 26.46032013 66.7331543 26.47753906 C65.58461975 26.49832016 64.43608521 26.51910126 63.25274658 26.54051208 C59.58481819 26.60588274 55.91681837 26.66483475 52.2487793 26.72363281 C49.76179275 26.76682989 47.27481342 26.81044456 44.7878418 26.85449219 C38.69156307 26.9615514 32.59521334 27.06334106 26.4987793 27.16113281 C27.07415373 27.73097649 27.64952816 28.30082016 28.24233818 28.88793182 C42.24682292 42.75986235 56.23463525 56.64841088 70.20411491 70.5555954 C76.96008299 77.28063661 83.72156176 83.99995664 90.49633789 90.70605469 C96.40179928 96.55167895 102.29660778 102.40780366 108.17891133 108.27673388 C111.29342875 111.38343499 114.41299335 114.48465282 117.54537582 117.573349 C120.4952256 120.48239027 123.43059541 123.40529688 126.35560226 126.33930969 C127.42991825 127.41197876 128.50936397 128.47953921 129.5943222 129.54144287 C139.82793099 139.56820357 139.82793099 139.56820357 140.4987793 147.16113281 C139.87465344 151.76406104 138.96985058 153.6686492 135.7487793 157.03613281 C132.33360455 159.26913168 130.54686773 160.07851876 126.4987793 160.16113281 C121.17846909 159.03286628 118.2265903 157.5117099 114.40504456 153.66867065 C113.7100363 152.98007058 113.7100363 152.98007058 113.00098747 152.2775594 C111.46283026 150.74758983 109.94314804 149.2005348 108.42285156 147.65283203 C107.31945941 146.5480285 106.21496308 145.44432682 105.10945129 144.34164429 C102.11932428 141.35294929 99.14484298 138.34911218 96.17296338 135.34228659 C93.06161569 132.19964009 89.93606167 129.07118784 86.81199646 125.94119263 C80.90184664 120.0155148 75.00455587 114.07720939 69.11179537 108.13424408 C62.40098342 101.36750646 55.67593427 94.61499487 48.94966042 87.86363196 C35.11681645 73.97855342 21.30192044 60.07573514 7.4987793 46.16113281 C7.49069244 46.7992691 7.48260559 47.4374054 7.47427368 48.09487915 C7.38810954 54.74623288 7.28860057 61.39729266 7.18139648 68.04833984 C7.14315139 70.52940935 7.10829077 73.01053347 7.0769043 75.49169922 C7.03115728 79.0613962 6.97317761 82.63071875 6.9128418 86.20019531 C6.89551498 87.85989853 6.89551498 87.85989853 6.87783813 89.5531311 C6.64501597 101.74661655 6.64501597 101.74661655 1.9987793 106.97363281 C-1.8165626 110.31205697 -4.24596592 110.5018724 -9.17700195 110.44628906 C-12.75201424 110.00767411 -14.834346 108.50277889 -17.5012207 106.16113281 C-20.23896938 102.33475207 -19.79668936 97.95792177 -19.79174805 93.44873047 C-19.79846527 92.5702092 -19.8051825 91.69168793 -19.81210327 90.7865448 C-19.83109907 87.88270408 -19.83500826 84.9790943 -19.8371582 82.07519531 C-19.843585 80.05504257 -19.85031327 78.03489077 -19.85733032 76.01473999 C-19.86930702 71.77966148 -19.87301074 67.54466456 -19.87182617 63.30957031 C-19.87162296 57.88664833 -19.89892628 52.46425024 -19.93337059 47.04145241 C-19.95562385 42.86867883 -19.95966419 38.69603165 -19.95860672 34.5232048 C-19.960965 32.5241452 -19.96980129 30.52508222 -19.98527145 28.52608109 C-20.00489952 25.72779047 -19.99910591 22.93063367 -19.98706055 20.13232422 C-19.99829956 19.30926285 -20.00953857 18.48620148 -20.02111816 17.63819885 C-19.96330092 12.34403433 -18.98181499 9.37600868 -15.5012207 5.16113281 C-10.18946758 0.48173125 -6.92696946 0.00926383 0 0 Z " fill="#000000" transform="translate(19.501220703125,-0.1611328125)"/>
</svg>
