<?xml version="1.0" encoding="UTF-8"?>
<svg version="1.1" xmlns="http://www.w3.org/2000/svg" width="512" height="512">
<path d="M0 0 C19.25235838 16.24417738 31.22682057 38.94861346 34.125 64 C34.23132105 65.56110427 34.3148629 67.12393541 34.375 68.6875 C34.41496094 69.52023438 34.45492188 70.35296875 34.49609375 71.2109375 C34.75351673 81.53814169 33.38717708 91.81565914 30.375 101.6875 C31.26958168 101.94103493 31.26958168 101.94103493 32.18223572 102.19969177 C38.65617095 104.08189295 44.91569267 106.32824056 51.19140625 108.78515625 C52.1984108 109.1757019 53.20541534 109.56624756 54.24293518 109.96862793 C59.69807081 112.08695179 65.14631659 114.22287208 70.59521484 116.35717773 C71.68781616 116.78506088 72.78041748 117.21294403 73.90612793 117.65379333 C76.08027983 118.50535776 78.25419194 119.35753466 80.42785645 120.21034241 C86.23150604 122.48146424 92.04984345 124.69235693 97.91015625 126.8125 C99.0612085 127.23909912 100.21226074 127.66569824 101.39819336 128.10522461 C103.3753633 128.83493338 105.36134562 129.54148142 107.35766602 130.21704102 C114.52857427 132.91721036 117.59488698 137.16925744 121.375 143.6875 C121.91157227 144.59991455 122.44814453 145.5123291 123.00097656 146.45239258 C124.68458826 149.38608848 126.31581312 152.34416018 127.9375 155.3125 C133.85357119 166.0110959 139.93625178 176.59942668 146.12109375 187.14453125 C146.64662842 188.04308838 147.17216309 188.94164551 147.71362305 189.86743164 C148.90153872 191.88383339 150.10240482 193.89262814 151.31176758 195.89624023 C152.26345825 197.48674194 152.26345825 197.48674194 153.234375 199.109375 C153.81541992 200.07069336 154.39646484 201.03201172 154.99511719 202.02246094 C157.09915136 206.08609099 157.39584227 208.21149927 156.375 212.6875 C152.3451991 216.61378795 148.35702598 218.85116169 143.078125 220.80078125 C142.40328064 221.06005905 141.72843628 221.31933685 141.03314209 221.58647156 C139.62004389 222.12700914 138.2048175 222.66201342 136.78759766 223.19165039 C134.61280849 224.00455702 132.44477893 224.83372247 130.27734375 225.66601562 C128.89879608 226.19104663 127.51990168 226.71516837 126.140625 227.23828125 C125.49168274 227.48508133 124.84274048 227.73188141 124.1741333 227.98616028 C119.61067281 229.6875 119.61067281 229.6875 117.375 229.6875 C117.37960896 230.26526278 117.38421793 230.84302557 117.38896656 231.43829632 C117.49942592 245.50162216 117.58214668 259.5648829 117.63406086 273.62855053 C117.65983409 280.42969029 117.69496701 287.23054034 117.75219727 294.03149414 C117.80738765 300.59317185 117.8364114 307.15462742 117.84938622 313.71654701 C117.85863415 316.22164972 117.87669297 318.7267357 117.90365028 321.23171043 C117.93987789 324.73711301 117.94494771 328.24126691 117.94262695 331.74682617 C117.96060333 332.78548325 117.97857971 333.82414032 117.99710083 334.89427185 C117.94659145 341.93183857 117.94659145 341.93183857 115.04441833 345.76860046 C111.95126744 347.99209827 108.84142005 349.46918134 105.296875 350.7890625 C104.59461288 351.06293289 103.89235077 351.33680328 103.16880798 351.61897278 C100.82550558 352.52934412 98.47543814 353.42073127 96.125 354.3125 C94.44198177 354.96237506 92.75945788 355.61353158 91.07739258 356.26586914 C87.44247079 357.67312151 83.80465905 359.07252799 80.16455078 360.46630859 C74.23697809 362.73735088 68.31890846 365.03248802 62.40234375 367.33203125 C55.14544564 370.15166861 47.88735632 372.96815797 40.62672424 375.77816772 C30.26966851 379.78658428 19.91866125 383.81002629 9.57543945 387.85400391 C6.26020435 389.15010084 2.94362891 390.44266518 -0.37426758 391.73193359 C-8.45490045 394.87390079 -16.52417427 398.03999273 -24.57072449 401.26843262 C-28.60517563 402.88387558 -32.64567251 404.48383693 -36.68710327 406.08172607 C-38.62453785 406.85215966 -40.55921828 407.62956068 -42.49087524 408.41436768 C-45.17459856 409.50399174 -47.86700651 410.56879941 -50.5625 411.62890625 C-51.3481987 411.95507431 -52.1338974 412.28124237 -52.94340515 412.61729431 C-61.9787494 416.10619082 -69.17410309 413.85907685 -77.84375 410.3203125 C-78.71828323 409.97405823 -79.59281647 409.62780396 -80.49385071 409.27105713 C-83.3749359 408.12806959 -86.24976684 406.97012019 -89.125 405.8125 C-91.16835427 404.99953161 -93.21222911 404.18787058 -95.2565918 403.37744141 C-98.45515297 402.10928121 -101.65336317 400.84030282 -104.85002136 399.56735229 C-115.32847664 395.3955992 -125.84191122 391.3164503 -136.36206055 387.2512207 C-141.48871648 385.26966257 -146.61348143 383.28322755 -151.73828125 381.296875 C-152.73723419 380.90975342 -153.73618713 380.52263184 -154.76541138 380.1237793 C-166.56435282 375.55016405 -178.35882428 370.96488994 -190.14086914 366.34790039 C-191.77619423 365.70716798 -193.4115294 365.06646131 -195.046875 364.42578125 C-196.23959267 363.95840294 -196.23959267 363.95840294 -197.45640564 363.48158264 C-202.27428555 361.5969263 -207.10059766 359.73601318 -211.93481445 357.89367676 C-215.02458963 356.71472092 -218.11054891 355.52597952 -221.19604492 354.33587646 C-222.6273098 353.78682402 -224.06037648 353.24244128 -225.49536133 352.70318604 C-227.45487608 351.96646789 -229.40747932 351.21366118 -231.359375 350.45703125 C-232.45475586 350.04042236 -233.55013672 349.62381348 -234.67871094 349.19458008 C-238.29577048 347.34438878 -240.1430215 345.94876405 -242.625 342.6875 C-243.35031839 339.04136848 -243.25677522 335.45324817 -243.19262695 331.74682617 C-243.19335709 330.64394257 -243.19408722 329.54105896 -243.19483948 328.40475464 C-243.19135872 324.76282408 -243.15247152 321.12217563 -243.11328125 317.48046875 C-243.10395494 314.9541341 -243.09683797 312.42779041 -243.09184265 309.90144348 C-243.07470887 303.93376297 -243.03531158 297.96663199 -242.9850952 291.99917156 C-242.92915496 285.20360304 -242.90170361 278.40801226 -242.87661803 271.61227071 C-242.82439363 257.637093 -242.73648081 243.66232167 -242.625 229.6875 C-243.54132092 229.38345324 -243.54132092 229.38345324 -244.47615337 229.07326412 C-245.68384742 228.67178331 -245.68384742 228.67178331 -246.91593933 228.26219177 C-247.71244494 227.99761893 -248.50895056 227.73304609 -249.3295927 227.46045589 C-254.58166719 225.69187132 -259.75487993 223.7105977 -264.9375 221.75 C-266.68643555 221.10514648 -266.68643555 221.10514648 -268.47070312 220.44726562 C-270.1500293 219.81014648 -270.1500293 219.81014648 -271.86328125 219.16015625 C-272.87430908 218.78125244 -273.88533691 218.40234863 -274.92700195 218.01196289 C-277.84194843 216.58099876 -279.57927758 215.19994184 -281.625 212.6875 C-283.11830683 204.75265071 -279.10675057 199.40976122 -275.0625 192.8125 C-274.03431372 191.08581158 -273.00615485 189.35910607 -271.97969055 187.63139343 C-270.91277552 185.840192 -269.8386319 184.05347244 -268.76367188 182.26708984 C-266.01883678 177.69117308 -263.3652758 173.06451943 -260.7109375 168.43554688 C-258.84232636 165.17701202 -256.96150002 161.92580023 -255.078125 158.67578125 C-252.91505741 154.93800522 -250.77826641 151.18794707 -248.671875 147.41796875 C-248.22561768 146.63043213 -247.77936035 145.84289551 -247.31958008 145.03149414 C-246.51646495 143.61383763 -245.72355284 142.19031999 -244.9440918 140.75952148 C-240.81671149 133.54059717 -234.56173403 131.03122905 -227.1171875 128.2890625 C-225.87650009 127.82117813 -225.87650009 127.82117813 -224.61074829 127.34384155 C-221.90966453 126.32659677 -219.20488114 125.3195986 -216.5 124.3125 C-212.71498712 122.89109455 -208.93181949 121.46480216 -205.1484375 120.0390625 C-204.1909259 119.67911194 -203.23341431 119.31916138 -202.24688721 118.94830322 C-195.78571864 116.5158297 -189.34341182 114.03875701 -182.9140625 111.5234375 C-182.07825653 111.19654938 -181.24245056 110.86966125 -180.38131714 110.53286743 C-177.17489485 109.2774171 -173.96918947 108.0202011 -170.76556396 106.75762939 C-168.58434754 105.898204 -166.40166402 105.04260211 -164.21875 104.1875 C-163.57491364 103.93205414 -162.93107727 103.67660828 -162.26773071 103.41342163 C-157.85151557 101.6875 -157.85151557 101.6875 -155.625 101.6875 C-155.82996094 100.93726563 -156.03492188 100.18703125 -156.24609375 99.4140625 C-163.1028211 73.36506003 -159.08886432 46.94669456 -145.79785156 23.61474609 C-132.47176436 1.71713319 -110.65408754 -13.94914348 -85.85009766 -20.21972656 C-54.711052 -27.24590641 -24.84173726 -19.55041286 0 0 Z M-122.0546875 20.66796875 C-136.14456093 37.22035805 -144.07147414 57.83259074 -142.625 79.6875 C-140.9225722 94.85700766 -136.6142688 108.18622942 -127.625 120.6875 C-126.96757812 121.60402344 -126.31015625 122.52054687 -125.6328125 123.46484375 C-113.76292881 138.96525962 -95.27266677 150.25800637 -75.90917969 153.40625 C-53.73442621 156.13661725 -32.32231858 151.70644146 -14.4375 137.9375 C-13.15827073 136.86409377 -11.88736863 135.78068521 -10.625 134.6875 C-9.8309375 134.08808594 -9.036875 133.48867187 -8.21875 132.87109375 C4.95331168 121.78196351 13.41858393 104.43202892 16.375 87.6875 C16.50390625 86.97464844 16.6328125 86.26179688 16.765625 85.52734375 C19.80455866 65.41440125 14.27770302 44.57646059 2.53125 28.1015625 C0.55488851 25.55268359 -1.49483156 23.10904084 -3.625 20.6875 C-4.29144531 19.92566406 -4.95789063 19.16382812 -5.64453125 18.37890625 C-19.04145812 4.03748361 -38.24702759 -4.65145273 -57.80859375 -5.52734375 C-82.9339031 -6.25834002 -104.59307397 2.46818205 -122.0546875 20.66796875 Z M-156.24633789 118.890625 C-158.04809227 119.61137207 -158.04809227 119.61137207 -159.88624573 120.34667969 C-161.20673057 120.8769166 -162.52720039 121.40719093 -163.84765625 121.9375 C-165.1913818 122.47573589 -166.53516816 123.01382 -167.87901306 123.55175781 C-171.42241425 124.97064835 -174.96498231 126.39160769 -178.50738525 127.81298828 C-182.11966038 129.261984 -185.73271348 130.70903703 -189.34570312 132.15625 C-196.43956826 134.99809097 -203.53255504 137.84211624 -210.625 140.6875 C-207.27113349 142.92341101 -203.82230832 144.27679082 -200.0859375 145.71484375 C-199.3141214 146.01520035 -198.5423053 146.31555695 -197.74710083 146.62501526 C-195.16605307 147.62844446 -192.58303336 148.62669442 -190 149.625 C-188.16589169 150.33692037 -186.33190995 151.04916691 -184.49804688 151.76171875 C-179.56260061 153.67834297 -174.62544153 155.59051632 -169.68786621 157.50164795 C-164.60622403 159.4691109 -159.52581402 161.43975012 -154.4453125 163.41015625 C-148.27521098 165.80296189 -142.10497627 168.195421 -135.93408203 170.58618164 C-119.76545831 176.85119392 -103.60635275 183.14047595 -87.45996094 189.46258545 C-85.93740765 190.0564213 -84.41335684 190.64643467 -82.88769531 191.23223877 C-79.53520641 192.52263463 -76.22457706 193.84667663 -72.95898438 195.34472656 C-71.85361328 195.83166992 -70.74824219 196.31861328 -69.609375 196.8203125 C-68.68350586 197.2548877 -67.75763672 197.68946289 -66.80371094 198.13720703 C-61.95118111 198.97726865 -58.17323566 197.35739989 -53.625 195.6875 C-52.40892059 195.24724487 -52.40892059 195.24724487 -51.16827393 194.7980957 C-48.61661847 193.84936493 -46.08111086 192.8653855 -43.546875 191.87109375 C-42.59896591 191.50273911 -41.65105682 191.13438446 -40.67442322 190.75486755 C-37.57315939 189.54861362 -34.47407859 188.3368559 -31.375 187.125 C-29.18347097 186.27133552 -26.99181851 185.41798784 -24.80004883 184.56494141 C-18.07274321 181.94497505 -11.34841555 179.31743091 -4.625 176.6875 C-3.60476746 176.28843445 -2.58453491 175.8893689 -1.53338623 175.47821045 C7.08144728 172.10790713 15.69535788 168.73524936 24.30810547 165.35961914 C44.6354876 157.39590657 65.00301979 149.5362886 85.375 141.6875 C82.16350637 139.00987266 78.98188183 137.59705448 75.08203125 136.12109375 C74.46656433 135.88578445 73.85109741 135.65047516 73.21697998 135.40803528 C71.89514078 134.90334676 70.57221627 134.40149326 69.24832153 133.90222168 C65.75977167 132.58654415 62.27894008 131.25069169 58.796875 129.91796875 C58.09264908 129.64912872 57.38842316 129.3802887 56.66285706 129.103302 C49.72624236 126.45110358 42.82829105 123.70666803 35.9375 120.9375 C34.86669189 120.50751709 33.79588379 120.07753418 32.69262695 119.63452148 C30.25280631 118.65368805 27.81354376 117.67150276 25.375 116.6875 C22.93063581 119.01491103 21.22284676 121.42783924 19.47094727 124.31982422 C5.95727834 146.57869436 -14.46407329 161.21883141 -39.625 167.6875 C-47.23253811 169.43960439 -54.57933848 170.04423608 -62.375 170 C-63.95087891 169.99154053 -63.95087891 169.99154053 -65.55859375 169.98291016 C-91.15892384 169.58536505 -114.37371231 159.37340403 -132.24707031 141.13671875 C-138.59633968 134.45896131 -143.39952605 127.0754852 -148.05859375 119.1796875 C-148.57550781 118.35726562 -149.09242188 117.53484375 -149.625 116.6875 C-151.8403043 116.6875 -154.24855885 118.08984509 -156.24633789 118.890625 Z M-230.625 151.6875 C-236.97349107 162.1473676 -243.12830082 172.70966654 -249.21899414 183.32177734 C-249.83121826 184.38734863 -250.44344238 185.45291992 -251.07421875 186.55078125 C-251.66638184 187.58154785 -252.25854492 188.61231445 -252.86865234 189.67431641 C-255.0424856 193.40373677 -257.29223702 197.08373541 -259.56958008 200.75073242 C-260.78450104 202.61258363 -260.78450104 202.61258363 -260.625 204.6875 C-237.80786111 213.73996301 -214.95064593 222.68460289 -192.05859375 231.54589844 C-179.45742537 236.42399242 -166.86317906 241.31920867 -154.277771 246.23782349 C-147.06146521 249.05767332 -139.84345015 251.87314473 -132.625 254.6875 C-131.91504883 254.9643866 -131.20509766 255.24127319 -130.47363281 255.52655029 C-126.04706419 257.25242193 -121.61804535 258.97185531 -117.1875 260.6875 C-115.58757202 261.31120483 -115.58757202 261.31120483 -113.95532227 261.94750977 C-113.00197998 262.31545654 -112.0486377 262.68340332 -111.06640625 263.0625 C-110.24857666 263.37960937 -109.43074707 263.69671875 -108.58813477 264.0234375 C-106.65464406 264.7943101 -106.65464406 264.7943101 -104.625 264.6875 C-104.27421387 264.05585938 -103.92342773 263.42421875 -103.56201172 262.7734375 C-101.87723849 259.7433562 -100.18921314 256.7151085 -98.5 253.6875 C-97.87778564 252.57221924 -97.25557129 251.45693848 -96.61450195 250.30786133 C-91.53120426 241.2308628 -86.31237744 232.24142566 -80.98193359 223.30664062 C-80.4245752 222.36369141 -79.8672168 221.42074219 -79.29296875 220.44921875 C-78.55469849 219.2111145 -78.55469849 219.2111145 -77.80151367 217.94799805 C-76.696302 215.82449631 -76.15632011 214.00320707 -75.625 211.6875 C-99.40690024 202.20886826 -123.20279764 192.78217762 -147.15176392 183.73272705 C-163.91026919 177.39597952 -180.56759073 170.81351477 -197.20117188 164.15625 C-208.26007219 159.74068311 -219.35542574 155.53573892 -230.625 151.6875 Z M100.4140625 153.17773438 C99.13867615 153.671828 99.13867615 153.671828 97.83752441 154.17590332 C96.90114136 154.54066772 95.9647583 154.90543213 95 155.28125 C94.02591187 155.65922729 93.05182373 156.03720459 92.04821777 156.42663574 C88.8231649 157.67859845 85.59907577 158.93302339 82.375 160.1875 C80.12569527 161.06131178 77.87634587 161.93500858 75.62695312 162.80859375 C60.40248268 168.7233242 45.18588318 174.6581968 29.97314453 180.60302734 C20.47426748 184.31390347 10.97014993 188.01099557 1.4609375 191.6953125 C0.36166931 192.12124695 -0.73759888 192.5471814 -1.87017822 192.98602295 C-7.23649518 195.06495703 -12.60329298 197.14264002 -17.97070312 199.21875 C-28.54781267 203.31262158 -39.10855431 207.43987587 -49.625 211.6875 C-48.39592493 215.68572231 -46.95219939 219.15227739 -44.82421875 222.75 C-43.98552246 224.17783813 -43.98552246 224.17783813 -43.12988281 225.63452148 C-42.53014648 226.64200439 -41.93041016 227.6494873 -41.3125 228.6875 C-40.69600586 229.73172119 -40.07951172 230.77594238 -39.44433594 231.85180664 C-38.15623519 234.03281778 -36.86599948 236.21256929 -35.57373047 238.39111328 C-33.66116967 241.62631698 -31.76726706 244.87171622 -29.87890625 248.12109375 C-28.71106434 250.12246985 -27.54310062 252.12377489 -26.375 254.125 C-25.82674561 255.07181641 -25.27849121 256.01863281 -24.71362305 256.99414062 C-24.20484619 257.86103516 -23.69606934 258.72792969 -23.171875 259.62109375 C-22.50430176 260.7666272 -22.50430176 260.7666272 -21.82324219 261.93530273 C-20.73106783 263.83690646 -20.73106783 263.83690646 -18.625 264.6875 C-16.37911085 264.08266273 -16.37911085 264.08266273 -13.81616211 263.03540039 C-12.80585434 262.64588196 -11.79554657 262.25636353 -10.75462341 261.8550415 C-9.64837112 261.41947937 -8.54211884 260.98391724 -7.40234375 260.53515625 C-6.25173965 260.08903992 -5.10113556 259.64292358 -3.91566467 259.18328857 C-0.78127673 257.9662995 2.35030485 256.74254099 5.48083496 255.51568985 C8.75525162 254.23433226 12.03307322 252.96174543 15.31054688 251.68823242 C21.20688261 249.39564826 27.10034853 247.0957986 32.99225807 244.79186535 C38.51276752 242.63316588 44.0354313 240.4800252 49.55859375 238.328125 C54.42861485 236.43002603 59.29812971 234.53065831 64.16577148 232.62646484 C73.61707814 228.92951969 83.07496055 225.25001642 92.5390625 221.5859375 C93.65923767 221.15216293 94.77941284 220.71838837 95.93353271 220.27146912 C101.43028522 218.14320688 106.92763022 216.01649228 112.42578125 213.8918457 C114.421891 213.11934473 116.41798551 212.34680436 118.4140625 211.57421875 C119.77212509 211.05032059 119.77212509 211.05032059 121.15762329 210.51583862 C125.93996924 208.66341417 130.67522144 206.74071227 135.375 204.6875 C133.93453952 200.82902896 132.14621724 197.35026638 130.1015625 193.77734375 C129.78138657 193.21634476 129.46121063 192.65534576 129.1313324 192.0773468 C128.09118201 190.25779195 127.04595494 188.44122351 126 186.625 C125.64517548 186.00677368 125.29035095 185.38854736 124.92477417 184.75158691 C120.15681227 176.4442243 115.3435545 168.16423645 110.4375 159.9375 C109.93621582 159.0930835 109.43493164 158.24866699 108.91845703 157.37866211 C108.46196777 156.61948486 108.00547852 155.86030762 107.53515625 155.078125 C107.13949463 154.41844727 106.74383301 153.75876953 106.33618164 153.07910156 C106.0189917 152.61987305 105.70180176 152.16064453 105.375 151.6875 C103.61253111 151.6875 102.04115385 152.54561238 100.4140625 153.17773438 Z M-225.625 236.6875 C-225.625 268.6975 -225.625 300.7075 -225.625 333.6875 C-209.93785588 340.07855872 -194.28149936 346.45196027 -178.46948242 352.51318359 C-173.67699238 354.3521026 -168.88526163 356.19295796 -164.0949707 358.03759766 C-162.83882317 358.52127533 -161.58267388 359.00494841 -160.32652283 359.48861694 C-159.70232893 359.72896038 -159.07813503 359.96930382 -158.43502617 360.21693039 C-156.54679519 360.94383944 -154.65843587 361.67041407 -152.77003479 362.3968811 C-141.14917309 366.86771106 -129.53531682 371.35651951 -117.92559814 375.85620117 C-114.92131271 377.02033601 -111.91648115 378.1830525 -108.91162109 379.34570312 C-107.03863404 380.07134893 -105.16574734 380.79725384 -103.29296875 381.5234375 C-102.40399902 381.86804016 -101.5150293 382.21264282 -100.59912109 382.56768799 C-96.01251855 384.35121452 -91.4371094 386.15926526 -86.87353516 388.00097656 C-85.48489006 388.56106918 -85.48489006 388.56106918 -84.06819153 389.13247681 C-82.30470985 389.84577221 -80.54250521 390.5622355 -78.78178406 391.28231812 C-78.00083878 391.59859161 -77.21989349 391.91486511 -76.4152832 392.24072266 C-75.72908401 392.52098297 -75.04288483 392.80124329 -74.33589172 393.08999634 C-72.61234316 393.79740238 -72.61234316 393.79740238 -70.625 393.6875 C-70.625 342.8675 -70.625 292.0475 -70.625 239.6875 C-74.08014128 243.97955899 -74.08014128 243.97955899 -76.8515625 248.515625 C-77.23884521 249.22517334 -77.62612793 249.93472168 -78.02514648 250.66577148 C-78.42934814 251.41544189 -78.8335498 252.1651123 -79.25 252.9375 C-82.77894631 259.37834179 -86.35961981 265.78232014 -90.0625 272.125 C-90.47516113 272.84010742 -90.88782227 273.55521484 -91.31298828 274.29199219 C-95.29469583 281.07880696 -95.29469583 281.07880696 -97.625 282.6875 C-103.69441922 283.28772805 -108.08645394 282.15873917 -113.65234375 279.85546875 C-114.41767426 279.55205566 -115.18300476 279.24864258 -115.9715271 278.93603516 C-118.5069421 277.9279561 -121.03441682 276.90131123 -123.5625 275.875 C-125.36355835 275.15575827 -127.16525035 274.43810151 -128.9675293 273.72192383 C-131.83127268 272.58358525 -134.69450168 271.44407542 -137.55580139 270.29960632 C-147.93160731 266.15046482 -158.35326757 262.12173462 -168.77734375 258.09576416 C-192.96346891 248.75269615 -192.96346891 248.75269615 -204.8828125 244.0390625 C-205.56037094 243.77134537 -206.23792938 243.50362823 -206.9360199 243.22779846 C-209.95522654 242.03408324 -212.97264381 240.83613543 -215.98754883 239.6315918 C-216.99068115 239.23367432 -217.99381348 238.83575684 -219.02734375 238.42578125 C-219.87804443 238.08587158 -220.72874512 237.74596191 -221.60522461 237.39575195 C-223.58282919 236.57719861 -223.58282919 236.57719861 -225.625 236.6875 Z M89.83984375 239.95703125 C88.51196335 240.47901093 88.51196335 240.47901093 87.15725708 241.01153564 C85.22553539 241.77122842 83.29440914 242.53243658 81.36380005 243.29495239 C76.14885718 245.35448581 70.92958789 247.40300862 65.7109375 249.453125 C64.62230911 249.88113907 63.53368073 250.30915314 62.4120636 250.75013733 C49.43532101 255.8491718 36.43277628 260.88141374 23.43014526 265.91397095 C21.48210702 266.6679883 19.53418377 267.42230281 17.58638 268.17692566 C15.69341166 268.90948424 13.79977545 269.64031958 11.90544128 270.36933899 C6.95126718 272.28015212 2.01871701 274.23287633 -2.89501953 276.24560547 C-3.92800674 276.66378036 -4.96099396 277.08195526 -6.02528381 277.51280212 C-7.9941712 278.31126137 -9.95875231 279.12045803 -11.91795349 279.94239807 C-17.40228567 282.15321216 -21.69966582 283.44607705 -27.625 282.6875 C-29.49243164 281.33300781 -29.49243164 281.33300781 -30.72265625 279.390625 C-31.43832764 278.29137695 -31.43832764 278.29137695 -32.16845703 277.16992188 C-32.64911621 276.35072266 -33.12977539 275.53152344 -33.625 274.6875 C-34.14304199 273.82189453 -34.66108398 272.95628906 -35.19482422 272.06445312 C-36.85903083 269.21037656 -38.46628573 266.33010423 -40.0625 263.4375 C-41.20134525 261.39947259 -42.34066398 259.36170969 -43.48046875 257.32421875 C-44.02106934 256.35403809 -44.56166992 255.38385742 -45.11865234 254.38427734 C-47.01357204 250.99184898 -48.93283343 247.61561784 -50.875 244.25 C-51.39578125 243.34378906 -51.9165625 242.43757813 -52.453125 241.50390625 C-52.83984375 240.90449219 -53.2265625 240.30507813 -53.625 239.6875 C-53.955 239.6875 -54.285 239.6875 -54.625 239.6875 C-54.625 290.5075 -54.625 341.3275 -54.625 393.6875 C-48.7774198 391.7383066 -42.99923246 389.75371189 -37.24609375 387.5625 C-36.45783707 387.26355835 -35.66958038 386.9646167 -34.85743713 386.65661621 C-32.25816658 385.66940895 -29.66022546 384.67876536 -27.0625 383.6875 C-25.69967896 383.16845093 -25.69967896 383.16845093 -24.30932617 382.63891602 C-8.35439186 376.55788493 7.52789904 370.30141222 23.39157104 363.98672485 C39.75208832 357.47618544 56.16995838 351.13307409 72.65234375 344.9375 C73.47346649 344.6276265 74.29458923 344.31775299 75.14059448 343.99848938 C76.62956101 343.43678454 78.11944477 342.87749914 79.61062622 342.32170105 C86.64629177 339.66528571 93.43645839 336.66116069 100.375 333.6875 C100.375 301.6775 100.375 269.6675 100.375 236.6875 C96.68596201 236.6875 93.23903498 238.60833789 89.83984375 239.95703125 Z " fill="#000000" transform="translate(318.625,97.3125)"/>
<path d="M0 0 C5.06393725 4.88716736 7.66462427 10.37794208 8.3125 17.375 C7.03848576 32.15356517 -7.35702801 42.55011271 -17.25 52.5234375 C-17.87040161 53.14916279 -18.49080322 53.77488808 -19.13000488 54.41957474 C-22.40512232 57.72118616 -25.68374704 61.01927274 -28.96484375 64.31494141 C-31.66200588 67.02550112 -34.35168342 69.74317335 -37.03515625 72.46728516 C-40.30227836 75.7838416 -43.5816154 79.08784341 -46.86999512 82.38331985 C-48.11170901 83.63171307 -49.34919205 84.88433049 -50.58215332 86.14136887 C-57.5399625 93.22741376 -63.6738356 99.47151966 -73.71484375 101.56640625 C-80.45483802 101.55456092 -85.65250073 100.20989812 -91 96 C-95.1888491 91.66679916 -98.82088214 86.86146734 -102.44677734 82.05712891 C-103.86956191 80.17275564 -105.31299762 78.30755476 -106.76953125 76.44921875 C-109.2128143 73.32417497 -111.61272602 70.16811998 -114 67 C-114.76699219 65.98550781 -115.53398437 64.97101563 -116.32421875 63.92578125 C-117.04222656 62.96027344 -117.76023438 61.99476563 -118.5 61 C-119.1290625 60.154375 -119.758125 59.30875 -120.40625 58.4375 C-124.34876305 52.40777416 -124.91007364 46.8747509 -123.60546875 39.88671875 C-121.83858632 34.0161094 -118.00105914 30.38899612 -113 27 C-107.21781519 24.206674 -100.9936205 23.94867587 -94.7890625 25.58203125 C-86.02443127 29.37541908 -80.40217843 38.49015347 -75 46 C-71.49128802 44.50236238 -69.26505641 42.49210103 -66.60205078 39.78149414 C-65.74080597 38.91041519 -64.87956116 38.03933624 -63.99221802 37.14186096 C-63.0692392 36.19914841 -62.14626038 35.25643585 -61.1953125 34.28515625 C-60.22957297 33.30805736 -59.26316207 32.33162162 -58.29611206 31.3558197 C-54.19837551 27.21843059 -50.11344686 23.06847897 -46.03173828 18.9152832 C-43.53072145 16.37140603 -41.02231943 13.83499691 -38.50951767 11.30276299 C-37.09569757 9.8733218 -35.69059733 8.43527289 -34.28567505 6.99708557 C-32.98435135 5.68573891 -32.98435135 5.68573891 -31.65673828 4.34790039 C-30.5223381 3.19445885 -30.5223381 3.19445885 -29.36502075 2.01771545 C-20.51675964 -5.53117103 -9.87552653 -5.82444563 0 0 Z M-17.35266113 14.99862671 C-18.74140442 16.40188705 -18.74140442 16.40188705 -20.15820312 17.83349609 C-20.67076157 18.34722275 -21.18332001 18.8609494 -21.71141052 19.39024353 C-23.40841656 21.09445203 -25.09465991 22.80892538 -26.78125 24.5234375 C-27.95732071 25.70764259 -29.1341294 26.89111519 -30.31164551 28.07388306 C-33.41422558 31.19360722 -36.50813827 34.32178225 -39.59991455 37.45220947 C-44.54682262 42.45823064 -49.50636488 47.45172692 -54.46653748 52.44459915 C-56.19923847 54.19126868 -57.9280707 55.94169677 -59.65637207 57.69271851 C-60.71809614 58.76446737 -61.77990012 59.83613708 -62.84179688 60.90771484 C-63.76762573 61.84481293 -64.69345459 62.78191101 -65.64733887 63.74740601 C-68.61643948 66.59022009 -70.23789849 67.91532205 -74.375 68.375 C-79.08372531 67.88789049 -81.22712831 66.03581151 -84.31689453 62.48779297 C-85.70028356 60.76350279 -87.04266983 59.01400986 -88.375 57.25 C-92.41193045 52.00178547 -96.54101825 46.90031442 -101 42 C-102.65 42.33 -104.3 42.66 -106 43 C-107.03437036 45.12310808 -107.03437036 45.12310808 -107 48 C-105.4297595 50.76231208 -103.34110798 53.05679199 -101.25 55.4375 C-100.04571721 56.8596975 -98.84261348 58.28289415 -97.640625 59.70703125 C-97.03025391 60.42197754 -96.41988281 61.13692383 -95.79101562 61.87353516 C-93.10873434 65.05819573 -90.55159736 68.33537053 -88 71.625 C-84.7409032 75.81570196 -81.41646658 79.9368451 -78 84 C-72.79716974 83.66513562 -70.1352701 80.69588548 -66.66503906 77.16674805 C-66.05144028 76.55855225 -65.43784149 75.95035645 -64.8056488 75.32373047 C-62.78227112 73.31284912 -60.77375098 71.28782249 -58.765625 69.26171875 C-57.36334854 67.85959725 -55.96040525 66.45814235 -54.55682373 65.05732727 C-51.61856046 62.12044838 -48.68739458 59.1767161 -45.76123047 56.2277832 C-42.00800829 52.44616376 -38.23941339 48.68032213 -34.4656105 44.91925335 C-31.56725483 42.02784845 -28.6763094 39.12912713 -25.78765106 36.22803688 C-24.4006221 34.83648852 -23.01149224 33.447031 -21.62024689 32.0596981 C-19.67850059 30.12085833 -17.74672568 28.17260795 -15.81738281 26.22143555 C-15.23973679 25.64829117 -14.66209076 25.07514679 -14.06694031 24.4846344 C-11.38911838 21.75621959 -9.53001415 19.83198143 -9 16 C-10.16666667 14.16666667 -10.16666667 14.16666667 -12 13 C-15.13343838 12.67628255 -15.13343838 12.67628255 -17.35266113 14.99862671 Z " fill="#000000" transform="translate(312,123)"/>
<path d="M0 0 C2.84545762 1.76614611 3.01955037 3.07540858 3.875 6.375 C4.01944587 10.56393035 3.46247478 11.69603437 1 15 C-1.58447266 16.86523438 -1.58447266 16.86523438 -4.6640625 18.59375 C-5.78683594 19.23183594 -6.90960938 19.86992188 -8.06640625 20.52734375 C-9.25245218 21.18516994 -10.43865103 21.84272048 -11.625 22.5 C-12.78840068 23.15641861 -13.95116762 23.81396175 -15.11328125 24.47265625 C-17.36563857 25.74394117 -19.62213657 27.00792267 -21.88305664 28.26391602 C-23.83258457 29.34976963 -25.77567105 30.44736539 -27.70874023 31.56225586 C-28.49708252 32.01479736 -29.2854248 32.46733887 -30.09765625 32.93359375 C-31.10324585 33.51838501 -31.10324585 33.51838501 -32.12915039 34.11499023 C-35.2437175 35.58834346 -37.65651791 35.59002625 -41 35 C-44.00342896 32.94502229 -44.83287356 31.52366286 -45.9375 28.0625 C-46.01445936 24.2914912 -45.20075829 23.02779485 -43 20 C-40.6015625 18.18359375 -40.6015625 18.18359375 -37.625 16.4375 C-37.0798877 16.11450928 -36.53477539 15.79151855 -35.97314453 15.45874023 C-33.9901559 14.29147002 -31.99541047 13.14590548 -30 12 C-28.19268131 10.95056738 -26.38539148 9.90108503 -24.578125 8.8515625 C-20.86617096 6.70750681 -17.15323748 4.56526743 -13.4296875 2.44140625 C-12.64835449 1.99482666 -11.86702148 1.54824707 -11.06201172 1.08813477 C-6.96489522 -1.07393583 -4.45273229 -1.11318307 0 0 Z " fill="#000000" transform="translate(401,84)"/>
<path d="M0 0 C3.01044313 1.98055469 3.82536529 3.49978663 5.0078125 6.88671875 C5.74921126 12.96255271 1.46712138 18.25930183 -1.5 23.25 C-2.11359375 24.31863281 -2.7271875 25.38726562 -3.359375 26.48828125 C-14.7350239 46.1566826 -14.7350239 46.1566826 -19 49 C-23.40184998 49.57061018 -25.29837208 49.50756062 -28.9375 46.875 C-31.40801049 43.43125811 -31.3987289 42.15105835 -31 38 C-29.82592773 35.19848633 -29.82592773 35.19848633 -28.18359375 32.33203125 C-27.58353516 31.27306641 -26.98347656 30.21410156 -26.36523438 29.12304688 C-25.72908203 28.03056641 -25.09292969 26.93808594 -24.4375 25.8125 C-23.82841797 24.73935547 -23.21933594 23.66621094 -22.59179688 22.56054688 C-9.14394526 -0.96252055 -9.14394526 -0.96252055 0 0 Z " fill="#000000" transform="translate(341,23)"/>
<path d="M0 0 C3.13037109 1.28173828 3.13037109 1.28173828 6.2734375 3.0703125 C6.84148102 3.38902313 7.40952454 3.70773376 7.99478149 4.03610229 C9.7963901 5.05200516 11.58527615 6.08833464 13.375 7.125 C14.56698103 7.79816448 15.7596851 8.47005033 16.953125 9.140625 C20.32931403 11.04862164 23.66981446 13.01261458 27 15 C27.91942383 15.54624023 28.83884766 16.09248047 29.78613281 16.65527344 C30.59147461 17.15833008 31.39681641 17.66138672 32.2265625 18.1796875 C32.91572754 18.60749512 33.60489258 19.03530273 34.31494141 19.47607422 C36.48181075 21.43573786 37.15571325 23.22731652 38 26 C37.84670385 29.14257113 37.19954487 30.70467359 35.4375 33.3125 C32.72072597 35.19334356 30.85785544 35.60791611 27.57055664 35.53295898 C22.19560466 34.41855874 17.54113829 31.2820165 12.87304688 28.49365234 C11.01361688 27.3831325 9.14164701 26.29705057 7.265625 25.21484375 C-10.3408516 14.97744519 -10.3408516 14.97744519 -12.1875 9.4375 C-11.98188636 5.66791661 -11.32999007 3.93406157 -9 1 C-5.92330613 -0.53834694 -3.40431273 -0.22989591 0 0 Z " fill="#000000" transform="translate(117,80)"/>
<path d="M0 0 C3.67052617 3.1909222 6.08457529 6.46471181 8.41015625 10.7109375 C9.30637695 12.33128906 9.30637695 12.33128906 10.22070312 13.984375 C10.82849609 15.10328125 11.43628906 16.2221875 12.0625 17.375 C13.28244195 19.59120646 14.50249116 21.80735388 15.72265625 24.0234375 C16.57283325 25.58372681 16.57283325 25.58372681 17.44018555 27.17553711 C18.71795654 29.48928458 20.03989546 31.7608847 21.3984375 34.02734375 C23.6866101 38.27441534 23.69946017 40.25921441 23 45 C20.31886615 48.24985922 18.64866582 48.89575014 14.5 49.5625 C10.03735759 48.84528961 8.95801473 47.3462596 6 44 C4.21069336 41.24853516 4.21069336 41.24853516 2.58984375 38.2890625 C1.99236328 37.20882812 1.39488281 36.12859375 0.77929688 35.015625 C0.17150391 33.89671875 -0.43628906 32.7778125 -1.0625 31.625 C-2.28244195 29.40879354 -3.50249116 27.19264612 -4.72265625 24.9765625 C-5.57283325 23.41627319 -5.57283325 23.41627319 -6.44018555 21.82446289 C-7.71795654 19.51071542 -9.03989546 17.2391153 -10.3984375 14.97265625 C-12.6866101 10.72558466 -12.69946017 8.74078559 -12 4 C-8.52445854 -0.21277753 -5.30670762 -0.85286372 0 0 Z " fill="#000000" transform="translate(178,21)"/>
<path d="M0 0 C0.82458206 -0.00960754 1.64916412 -0.01921509 2.49873352 -0.02911377 C3.39142441 -0.03336365 4.2841153 -0.03761353 5.20385742 -0.04199219 C6.12140305 -0.04769226 7.03894867 -0.05339233 7.98429871 -0.05926514 C9.92864832 -0.06872152 11.87301401 -0.07525164 13.81738281 -0.07910156 C16.78698872 -0.08879428 19.7558988 -0.11980622 22.7253418 -0.15136719 C24.61400956 -0.15789852 26.50268228 -0.16314848 28.39135742 -0.16699219 C29.27797562 -0.17933899 30.16459381 -0.19168579 31.07807922 -0.20440674 C35.84904046 -0.18723952 39.17172943 -0.02887301 42.99682617 3.16113281 C44.65499415 6.47746877 45.23443836 8.23228516 44.30932617 11.84863281 C43.01712509 14.12536805 42.01405448 15.51429409 39.99682617 17.16113281 C37.96133423 17.55554199 37.96133423 17.55554199 35.60473633 17.58105469 C34.72016754 17.59696655 33.83559875 17.61287842 32.92422485 17.62927246 C31.49449844 17.62957458 31.49449844 17.62957458 30.03588867 17.62988281 C29.05316986 17.63749634 28.07045105 17.64510986 27.05795288 17.6529541 C24.97835837 17.66376265 22.89870954 17.66660515 20.8190918 17.66210938 C17.6404326 17.6611385 14.46419828 17.70272181 11.28588867 17.74707031 C9.26506037 17.75227837 7.24422368 17.75496549 5.22338867 17.75488281 C4.27428619 17.77127808 3.32518372 17.78767334 2.34732056 17.80456543 C-2.25514537 17.75649138 -4.34077484 17.6625429 -8.10717773 14.81152344 C-10.00317383 12.16113281 -10.00317383 12.16113281 -10.56567383 9.16113281 C-9.87959726 5.50205777 -8.57583069 3.80945605 -6.00317383 1.16113281 C-3.74927644 0.03418412 -2.50107096 0.02350295 0 0 Z " fill="#000000" transform="translate(381.003173828125,164.8388671875)"/>
<path d="M0 0 C0.84460281 -0.01283524 1.68920563 -0.02567047 2.55940247 -0.03889465 C3.47396713 -0.04628159 4.3885318 -0.05366852 5.33081055 -0.0612793 C6.74042305 -0.07338692 6.74042305 -0.07338692 8.17851257 -0.08573914 C10.1699336 -0.09958358 12.16137839 -0.11030412 14.15283203 -0.11816406 C17.19503897 -0.13537084 20.23615755 -0.17925287 23.27807617 -0.22338867 C25.21231297 -0.23351609 27.14655901 -0.24203204 29.08081055 -0.2487793 C29.98930252 -0.26628738 30.89779449 -0.28379547 31.83381653 -0.30183411 C35.99299319 -0.28758691 38.31258748 -0.17519789 41.95263672 1.98876953 C44.68180942 5.04761346 44.97634377 7.11207689 44.9050293 11.17700195 C43.13861757 13.97889641 41.87453108 15.69225106 38.9050293 17.17700195 C37.54311725 17.28597435 36.1762039 17.33593675 34.81005859 17.35400391 C33.96545578 17.36683914 33.12085297 17.37967438 32.25065613 17.39289856 C31.33609146 17.40028549 30.42152679 17.40767242 29.47924805 17.4152832 C28.53950638 17.42335495 27.59976471 17.4314267 26.63154602 17.43974304 C24.64012499 17.45358748 22.6486802 17.46430802 20.65722656 17.47216797 C17.61501962 17.48937475 14.57390104 17.53325677 11.53198242 17.57739258 C9.59774563 17.58752 7.66349959 17.59603595 5.72924805 17.6027832 C4.82075607 17.62029129 3.9122641 17.63779938 2.97624207 17.65583801 C-1.1829346 17.64159081 -3.50252889 17.5292018 -7.14257812 15.36523438 C-9.87175082 12.30639045 -10.16628518 10.24192702 -10.0949707 6.17700195 C-7.24331815 1.65369101 -5.24379715 0.06934879 0 0 Z " fill="#000000" transform="translate(92.094970703125,160.822998046875)"/>
<path d="M0 0 C2.64819336 1.38671875 2.64819336 1.38671875 5 4 C5.75117785 7.43180412 5.676613 10.81137163 5.62890625 14.3125 C5.63131821 15.31837158 5.63373016 16.32424316 5.63621521 17.3605957 C5.63523647 19.48555446 5.62183654 21.61053862 5.59692383 23.73535156 C5.56262114 26.98851105 5.57626247 30.23895383 5.59570312 33.4921875 C5.58880459 35.55730323 5.57913214 37.62241195 5.56640625 39.6875 C5.57136612 40.66050049 5.57632599 41.63350098 5.58143616 42.63598633 C5.46403023 49.36571664 5.46403023 49.36571664 3.08959961 52.61132812 C0.83295331 54.11101315 -0.31355369 54.54197572 -3 54.5 C-3.99 54.51546875 -3.99 54.51546875 -5 54.53125 C-8.11215739 53.70458319 -9.08138829 52.62255219 -11 50 C-11.62347026 46.56880807 -11.58414468 43.16733035 -11.56640625 39.6875 C-11.57260483 38.68162842 -11.57880341 37.67575684 -11.58518982 36.6394043 C-11.5922881 34.51449552 -11.58911388 32.38953113 -11.57641602 30.26464844 C-11.5625483 27.0113306 -11.59662443 23.76088745 -11.63476562 20.5078125 C-11.6357168 18.44270763 -11.6338581 16.37759915 -11.62890625 14.3125 C-11.64216446 13.33949951 -11.65542267 12.36649902 -11.66908264 11.36401367 C-11.57624914 4.6403167 -11.57624914 4.6403167 -8.64819336 1.38671875 C-5.38786158 -0.3205445 -3.63263234 -0.60543872 0 0 Z " fill="#000000" transform="translate(259,0)"/>
</svg>
